<?xml version="1.0" encoding="UTF-8"?>
<svg viewBox="0 0 1000 1000" version="1.1" xmlns="http://www.w3.org/2000/svg" xmlns:xlink="http://www.w3.org/1999/xlink">
    <defs>
        <linearGradient x1="67.1006831%" y1="82.0300231%" x2="45.1016431%" y2="0%" id="linearGradient-1">
            <stop stop-color="#FA8BFF" offset="0%"></stop>
            <stop stop-color="#2CD1FF" offset="52.0408163%"></stop>
            <stop stop-color="#2CFF88" offset="100%"></stop>
        </linearGradient>
        <path d="M499.642848,455.285695 C569.95747,455.285695 630.730464,414.433128 659.521411,355.168412 L659.521411,754.317822 C659.521411,759.223294 663.498081,763.199965 668.403553,763.199965 C673.309025,763.199965 677.285695,759.223294 677.285695,754.317822 L677.285695,277.642848 C677.285695,179.533412 597.752283,100 499.642848,100 C401.533412,100 322,179.533412 322,277.642848 L322,766.160679 C322,771.066151 325.976671,775.042821 330.882142,775.042821 C335.787614,775.042821 339.764285,771.066151 339.764285,766.160679 L339.764285,355.168412 C366.100347,409.379872 419.197022,448.185177 481.878563,454.408579 L481.878563,891.117858 C481.878563,896.023329 485.855234,900 490.760705,900 C495.666177,900 499.642848,896.023329 499.642848,891.117858 L499.642848,455.285695 Z" id="path-2"></path>
    </defs>
    <g id="Satellites" stroke="none" stroke-width="1" fill="none" fill-rule="evenodd">
        <g id="La-comète">
            <g id="Satellites/La-comète">
                <rect id="Rectangle" x="0" y="0" width="1000" height="1000"></rect>
                <g id="Combined-Shape">
                    <use fill="url(#linearGradient-1)" fill-rule="evenodd" xlink:href="#path-2"></use>
                    <path stroke="#000000" stroke-width="10" d="M504.642848,460.218019 L504.642848,891.117858 C504.642848,898.784753 498.427601,905 490.760705,905 C483.09381,905 476.878563,898.784753 476.878563,891.117858 L476.878563,458.880061 C421.955578,452.043143 373.629218,420.597174 344.764284,374.500042 L344.764285,766.160679 C344.764285,773.827574 338.549038,780.042821 330.882142,780.042821 C323.215247,780.042821 317,773.827574 317,766.160679 L317,277.642848 C317,176.771988 398.771988,95 499.642848,95 C600.513707,95 682.285695,176.771988 682.285695,277.642848 L682.285695,754.317822 C682.285695,761.984718 676.070448,768.199965 668.403553,768.199965 C660.736657,768.199965 654.521411,761.984718 654.521411,754.317822 L654.521411,374.506036 C622.461156,425.733403 566.617776,458.539042 504.642848,460.218019 Z"></path>
                </g>
            </g>
        </g>
    </g>
</svg>
