<?xml version="1.0" encoding="UTF-8"?>
<svg viewBox="0 0 1000 1000" version="1.1" xmlns="http://www.w3.org/2000/svg" xmlns:xlink="http://www.w3.org/1999/xlink">
    <defs></defs>
    <g id="Satellites" stroke="none" stroke-width="1" fill="none" fill-rule="evenodd">
        <g id="Hallo-Velo">
            <g id="Satellites/Hallo-Vélo">
                <rect id="Rectangle" x="0" y="0" width="1000" height="1000"></rect>
                <g id="rocket" stroke-width="1" fill-rule="evenodd" transform="translate(242.000000, 100.000000)">
                    <path d="M371.830986,600 C371.830986,714.285714 257.746479,800 257.746479,800 C257.746479,800 143.661972,714.285714 143.661972,600 L371.830986,600 Z" id="Shape" fill="#FFD878" fill-rule="nonzero"></path>
                    <path d="M259.16926,740.84507 C237.329396,719.230932 207.60769,669.89984 194.366197,628.169014 L323.943662,628.169014 C310.73083,669.928094 281.009125,719.259186 259.16926,740.84507 Z" id="Shape" stroke="#000000" stroke-width="10" fill="#E57C5C" fill-rule="nonzero"></path>
                    <path d="M402.816901,484.507042 L402.816901,570.704225 C402.816901,570.704225 374.084507,628.169014 259.15493,628.169014 C144.225352,628.169014 115.492958,570.704225 115.492958,570.704225 L115.492958,484.507042" id="Shape" fill="#AAAAAA" fill-rule="nonzero"></path>
                    <path d="M402.816901,228.910304 L402.816901,486.434396 C402.816901,486.434396 374.084507,543.661972 259.15493,543.661972 C144.225352,543.661972 115.492958,486.434396 115.492958,486.434396 L115.492958,228.910304 C115.492958,143.06894 230.422535,0 259.15493,0 C287.887324,0 402.816901,143.06894 402.816901,228.910304 Z" id="Shape" fill="#BFBFBF" fill-rule="nonzero"></path>
                    <path d="M343.661972,86.6197183 C343.661972,86.6197183 315.023474,115.492958 257.746479,115.492958 C200.469484,115.492958 171.830986,86.6197183 171.830986,86.6197183 C171.830986,86.6197183 218.368545,0 257.746479,0 C297.124413,0 343.661972,86.6197183 343.661972,86.6197183 Z" id="Shape" fill="#EF6565" fill-rule="nonzero"></path>
                    <circle id="Oval" fill="#ACF0F2" fill-rule="nonzero" cx="257.746479" cy="285.915493" r="71.8309859"></circle>
                    <polyline id="Shape" fill="#EF6565" fill-rule="nonzero" points="115.606548 513.780825 0 628.169014 0 370.795588 121.126761 191.549296"></polyline>
                    <polyline id="Shape" fill="#EF6565" fill-rule="nonzero" points="399.692995 516.387564 515.492958 630.985915 515.492958 373.139625 403 206.5"></polyline>
                    <path d="M402.816901,228.910304 L402.816901,486.434396 C402.816901,486.434396 374.084507,543.661972 259.15493,543.661972 C144.225352,543.661972 115.492958,486.434396 115.492958,486.434396 L115.492958,228.910304 C115.492958,143.06894 230.422535,0 259.15493,0 C287.887324,0 402.816901,143.06894 402.816901,228.910304 Z" id="Shape" stroke="#000000" stroke-width="10"></path>
                    <path d="M402.816901,484.507042 L402.816901,570.704225 C402.816901,570.704225 374.084507,628.169014 259.15493,628.169014 C144.225352,628.169014 115.492958,570.704225 115.492958,570.704225 L115.492958,484.507042" id="Shape" stroke="#000000" stroke-width="10"></path>
                    <path d="M171.830986,84.5070423 C171.830986,84.5070423 200.469484,112.676056 257.746479,112.676056 C315.023474,112.676056 343.661972,84.5070423 343.661972,84.5070423" id="Shape" stroke="#000000" stroke-width="10"></path>
                    <circle id="Oval" stroke="#000000" stroke-width="10" cx="257.746479" cy="285.915493" r="71.8309859"></circle>
                    <path d="M115.606548,513.780825 L8.51675566,619.742015 L8.51675566,619.742015 C6.55381806,621.684266 3.38803758,621.667495 1.44578706,619.704558 C0.51953922,618.768444 8.93666605e-15,617.504709 2.39808173e-14,616.187802 L0,372.326585 L3.90798505e-14,372.326585 C3.89576552e-14,371.328784 0.298538154,370.353804 0.857209562,369.527069 L121.126761,191.549296" id="Shape" stroke="#000000" stroke-width="10"></path>
                    <path d="M401.5,518.5 L506.981028,622.586517 L506.981028,622.586517 C508.946599,624.526103 512.112354,624.505037 514.051939,622.539466 C514.975266,621.603769 515.492958,620.342093 515.492958,619.027536 L515.492958,374.631567 L515.492958,374.631567 C515.492958,373.658145 515.208816,372.70589 514.675393,371.891635 L396.5,191.5" id="Shape" stroke="#000000" stroke-width="10"></path>
                    <path d="M371.830986,600 C371.830986,714.285714 257.746479,800 257.746479,800 C257.746479,800 143.661972,714.285714 143.661972,600" id="Shape" stroke="#000000" stroke-width="10"></path>
                </g>
            </g>
        </g>
    </g>
</svg>
