<?xml version="1.0" encoding="UTF-8"?>
<svg viewBox="0 0 1000 1000" version="1.1" xmlns="http://www.w3.org/2000/svg" xmlns:xlink="http://www.w3.org/1999/xlink">
    <defs></defs>
    <g id="Satellites" stroke="none" stroke-width="1" fill="none" fill-rule="evenodd">
        <g id="Nuit-blanche">
            <g id="Satellites/Nuit-blanche">
                <rect id="Rectangle" x="0" y="0" width="1000" height="1000"></rect>
                <g id="ufo" stroke-width="1" fill-rule="evenodd" transform="translate(100.000000, 241.000000)">
                    <path d="M399.990605,456.140351 C277.985279,456.140351 125.958657,435.856779 32.5421384,348.437015 C17.7905576,334.621109 3.09993375,317.131083 0.356871204,296.452771 C-3.66628719,266.270331 27.1779272,244.468527 49.9758247,231.259914 C63.1120464,223.668757 178.259716,169.55899 187.403258,185.318232 C243.209341,281.483009 389.871752,285.794786 486.031333,265.93632 C528.762152,257.130577 573.748378,238.942165 601.057089,203.385185 C610.871157,190.601677 609.62154,181.76557 627.360011,185.925524 C649.578818,191.117876 671.553796,197.615906 692.980163,205.389251 C727.7561,217.990572 797.521324,243.314672 799.929123,288.436509 C801.879746,324.661511 763.141607,354.813586 736.320551,372.759082 C639.673314,437.617928 514.010571,456.140351 399.990605,456.140351 Z" id="Shape" fill="#BFBFBF" fill-rule="nonzero"></path>
                    <path d="M401.769714,517.54386 C360.354606,517.54386 346.774374,488.373091 336.842105,454.385965 C380.249798,457.172788 423.258974,457.172788 466.666667,454.385965 C456.765053,488.342799 443.184822,517.54386 401.769714,517.54386 Z" id="Shape" fill="#67DDE0" fill-rule="nonzero"></path>
                    <path d="M694.311682,456.140351 C668.331027,456.140351 652.754874,437.627736 636.842105,420.552993 C677.542072,405.005991 715.151289,386.733021 751.59765,363.157895 C754.994415,378.105783 760.135463,393.592874 756.830503,408.960142 C751.016222,435.920261 721.914216,456.140351 694.311682,456.140351 Z" id="Shape" fill="#67DDE0" fill-rule="nonzero"></path>
                    <path d="M96.626036,459.649123 C69.8622102,459.649123 41.180158,439.469612 34.7251739,412.542964 C30.3406563,394.251413 37.2523611,376.857417 42.4894237,359.649123 C77.8091483,384.718761 114.499035,404.062617 154.385965,420.497157 C138.918361,439.438662 123.389862,459.649123 96.626036,459.649123 Z" id="Shape" fill="#67DDE0" fill-rule="nonzero"></path>
                    <path d="M185.964912,182.45614 C185.964912,182.45614 216.41604,0 399.122807,0 C581.829574,0 612.280702,182.45614 612.280702,182.45614 C612.280702,182.45614 581.829574,273.684211 399.122807,273.684211 C216.41604,273.684211 185.964912,182.45614 185.964912,182.45614 Z" id="Shape" stroke="#000000" stroke-width="10" fill="#FFA0A0" stroke-linecap="round"></path>
                    <path d="M613.314119,182.45614 C613.314119,182.45614 765.681348,212.865497 796.154793,273.684211 C826.628239,334.502924 674.261011,456.140351 400,456.140351 C125.738989,456.140351 -26.6282388,334.502924 3.84520679,273.684211 C34.3186524,212.865497 186.685881,182.45614 186.685881,182.45614" id="Shape" stroke="#000000" stroke-width="10" stroke-linecap="round"></path>
                    <path d="M340.350877,456.140351 C340.350877,456.140351 340.350877,515.789474 401.754386,515.789474 C463.157895,515.789474 463.157895,456.140351 463.157895,456.140351" id="Shape" stroke="#000000" stroke-width="10" stroke-linecap="round"></path>
                    <path d="M643.859649,427.780427 C643.859649,427.780427 674.259319,480.704943 726.911548,450.148063 C779.563777,419.591183 749.164107,366.666667 749.164107,366.666667" id="Shape" stroke="#000000" stroke-width="10" stroke-linecap="round"></path>
                    <path d="M147.368421,427.780427 C147.368421,427.780427 116.972368,480.704943 64.3264047,450.148063 C11.6804412,419.591183 42.046098,366.666667 42.046098,366.666667" id="Shape" stroke="#000000" stroke-width="10" stroke-linecap="round"></path>
                </g>
            </g>
        </g>
    </g>
</svg>
