<?xml version="1.0" encoding="UTF-8"?>
<svg viewBox="0 0 1000 1000" version="1.1" xmlns="http://www.w3.org/2000/svg" xmlns:xlink="http://www.w3.org/1999/xlink">
    <defs></defs>
    <g id="Satellites" stroke="none" stroke-width="1" fill="none" fill-rule="evenodd">
        <g id="Rosalie">
            <g id="Satellites/Rosalie">
                <rect id="Rectangle" x="0" y="0" width="1000" height="1000"></rect>
                <g id="explorer" stroke-width="1" fill-rule="evenodd" transform="translate(114.000000, 254.000000)">
                    <polygon id="Shape" fill="#FFFFFF" fill-rule="nonzero" points="686 375 628.857143 197.228571 571.714286 146.428571 571.714286 317.857143"></polygon>
                    <path d="M57.4285714,360.714286 L57.4285714,103.571429 C57.4285714,103.571429 57.4285714,46.4285714 114.571429,46.4285714 L171.714286,46.4285714 C171.714286,46.4285714 228.857143,46.4285714 228.857143,103.571429 L228.857143,360.714286 L57.4285714,360.714286 Z" id="Shape" fill="#AAAAAA" fill-rule="nonzero"></path>
                    <path d="M57.4285714,360.714286 L57.4285714,103.571429 C57.4285714,103.571429 57.4285714,46.4285714 114.571429,46.4285714 L171.714286,46.4285714 C171.714286,46.4285714 228.857143,46.4285714 228.857143,103.571429 L228.857143,360.714286 L57.4285714,360.714286 Z" id="Shape" stroke="#000000" stroke-width="10"></path>
                    <path d="M143.142857,446.428571 L514.571429,446.428571 L657.428571,446.428571 L743.142857,446.428571 C743.142857,446.428571 771.714286,446.428571 771.714286,417.857143 L771.714286,389.285714 C771.714286,389.285714 771.714286,360.714286 743.142857,360.714286 L143.142857,360.714286 L143.142857,446.428571 Z" id="Shape" fill="#FFFFFF" fill-rule="nonzero"></path>
                    <path d="M590.914286,8.45714286 L752.514286,170.114286 C752.514286,170.114286 671.714286,250.914286 590.914286,170.114286 C510.085714,89.2857143 590.914286,8.45714286 590.914286,8.45714286 Z" id="Shape" fill="#FFFFFF" fill-rule="nonzero"></path>
                    <path d="M228.857143,360.714286 L228.857143,217.857143 L371.714286,217.857143 C371.714286,217.857143 428.857143,217.857143 428.857143,275 L428.857143,360.714286 L228.857143,360.714286 Z" id="Shape" fill="#AAAAAA" fill-rule="nonzero"></path>
                    <path d="M571,146.428571 L571,317.857143" id="Shape" stroke="#000000" stroke-width="10"></path>
                    <path d="M628.857143,197.228571 L680.5,361.5" id="Shape" stroke="#000000" stroke-width="10"></path>
                    <path d="M143.142857,446.428571 L514.571429,446.428571 L657.428571,446.428571 L743.142857,446.428571 C743.142857,446.428571 771.714286,446.428571 771.714286,417.857143 L771.714286,389.285714 C771.714286,389.285714 771.714286,360.714286 743.142857,360.714286 L143.142857,360.714286 L143.142857,446.428571 Z" id="Shape" stroke="#000000" stroke-width="10"></path>
                    <path d="M590.914286,8.45714286 L752.514286,170.114286 C752.514286,170.114286 671.714286,250.914286 590.914286,170.114286 C510.085714,89.2857143 590.914286,8.45714286 590.914286,8.45714286 Z" id="Shape" stroke="#000000" stroke-width="10"></path>
                    <path d="M718.228571,42.8 L670.5,89.5" id="Shape" stroke="#000000" stroke-width="10"></path>
                    <circle id="Oval" stroke="#000000" stroke-width="10" fill="#FF6363" cx="732.314286" cy="28.6857143" r="28.5714286"></circle>
                    <path d="M228.857143,360.714286 L228.857143,217.857143 L371.714286,217.857143 C371.714286,217.857143 428.857143,217.857143 428.857143,275 L428.857143,360.714286 L228.857143,360.714286 Z" id="Shape" stroke="#000000" stroke-width="10"></path>
                    <path d="M0.285714286,389.285714 L0.285714286,275 C0.285714286,275 0.285714286,217.857143 57.4285714,217.857143 L228.857143,217.857143 C228.857143,217.857143 286,217.857143 286,275 L286,446.428571 L86,446.428571 L0.285714286,389.285714 Z" id="Shape" fill="#FFFFFF" fill-rule="nonzero"></path>
                    <path d="M0.285714286,389.285714 L0.285714286,275 C0.285714286,275 0.285714286,217.857143 57.4285714,217.857143 L228.857143,217.857143 C228.857143,217.857143 286,217.857143 286,275 L286,446.428571 L86,446.428571 L0.285714286,389.285714 Z" id="Shape" stroke="#000000" stroke-width="10"></path>
                    <circle id="Oval" fill="#AAAAAA" fill-rule="nonzero" cx="100.285714" cy="403.571429" r="100"></circle>
                    <circle id="Oval" stroke="#000000" stroke-width="10" cx="100.285714" cy="403.571429" r="100"></circle>
                    <circle id="Oval" fill="#AAAAAA" fill-rule="nonzero" cx="586" cy="403.571429" r="100"></circle>
                    <circle id="Oval" stroke="#000000" stroke-width="10" cx="586" cy="403.571429" r="100"></circle>
                    <circle id="Oval" fill="#4D5152" fill-rule="nonzero" cx="100.285714" cy="403.571429" r="28.5714286"></circle>
                    <circle id="Oval" fill="#4D5152" fill-rule="nonzero" cx="586" cy="403.571429" r="28.5714286"></circle>
                </g>
            </g>
        </g>
    </g>
</svg>
