<?xml version="1.0" encoding="UTF-8"?>
<svg viewBox="0 0 1000 1000" version="1.1" xmlns="http://www.w3.org/2000/svg" xmlns:xlink="http://www.w3.org/1999/xlink">
    <defs></defs>
    <g id="Planètes" stroke="none" stroke-width="1" fill="none" fill-rule="evenodd">
        <g id="Roscosmic">
            <g id="Planètes/Roscosmic">
                <g>
                    <rect id="Rectangle" x="0" y="0" width="1000" height="1000"></rect>
                    <circle id="Oval-2" fill="#AD2E2B" opacity="0.912760417" cx="767" cy="150" r="68"></circle>
                    <circle id="Oval" stroke="#FFFFFF" stroke-width="5" cx="486" cy="472" r="410"></circle>
                    <path d="M454,407 C416.740917,424.030193 390.740917,436.696859 376,445 C327.205225,472.484714 294.151298,497.946913 277,513 C247.737292,538.682844 230.002087,565.878689 226.204148,586.918954 C223.803777,600.216806 229.37283,614.055822 233.5,620.5 C251.911015,649.247024 322.177978,660.32895 415.648861,646.485992 C466.869629,638.90024 527.696814,621.568353 585.5,600 C619,587.5 647.190824,574.790669 672.377522,561.795982 C734.774354,529.603304 782.135121,494.205839 808.761732,465.008343 C827.142052,444.853346 833.5,434.5 840,416.5 C844.015321,405.380649 842,384 831,373.5 C827.048955,369.728548 817.5,361 807,356.5 C800,353.5 787.666667,350.166667 770,346.5 C808.912551,347.522581 836.579218,356.522581 853,373.5 C877.631173,398.966128 862.5,436.5 832.5,470.5 C802.5,504.5 701.5,581.5 562.5,633.5 C496.670009,658.127047 424.113431,680.40758 362.5,689.5 C294.016695,699.606221 250,703 209.5,695.5 C167.459458,687.714714 139.5,669.5 139.5,641 C139.5,612.5 160.5,577.5 229,524 C262.947032,497.486624 314.866299,467.651153 380,437 C397,429 421.666667,419 454,407 Z" id="Path-3" fill="#FFFFFF"></path>
                    <polygon id="Path-2" fill="#AC2D2A" points="230 777 717 273 687.5 661.5 596 567"></polygon>
                </g>
            </g>
        </g>
    </g>
</svg>
