<?xml version="1.0" encoding="UTF-8"?>
<svg viewBox="0 0 1000 1000" version="1.1" xmlns="http://www.w3.org/2000/svg" xmlns:xlink="http://www.w3.org/1999/xlink">
    <defs></defs>
    <g id="Satellites" stroke="none" stroke-width="1" fill="none" fill-rule="evenodd">
        <g id="Rudelbums">
            <g id="Satellites/Rudelbums">
                <rect id="Rectangle" x="0" y="0" width="1000" height="1000"></rect>
                <g id="Page-1" stroke-width="1" fill-rule="evenodd" transform="translate(100.000000, 114.000000)">
                    <polygon id="Fill-1" fill="#AAAAAA" points="633.707865 275.280899 798.876404 275.280899 798.876404 0 633.707865 0"></polygon>
                    <polygon id="Fill-2" fill="#AAAAAA" points="633.707865 771.910112 798.876404 771.910112 798.876404 496.629213 633.707865 496.629213"></polygon>
                    <path d="M715.730337,0 L715.730337,770.786517" id="Stroke-3" stroke="#000000" stroke-width="10" stroke-linecap="round" stroke-linejoin="round"></path>
                    <polygon id="Fill-5" fill="#FFFFFF" points="358.426966 193.258427 468.539326 193.258427 468.539326 0 358.426966 0"></polygon>
                    <polygon id="Fill-6" fill="#AAAAAA" points="358.426966 55.0561798 468.539326 55.0561798 468.539326 0 358.426966 0"></polygon>
                    <path d="M360.674157,55.0561798 L468.539326,55.0561798" id="Stroke-7" stroke="#000000" stroke-width="10"></path>
                    <g id="Group-11" transform="translate(633.707865, 0.000000)" stroke-linecap="round" stroke-width="10" stroke="#000000" stroke-linejoin="round">
                        <polygon id="Stroke-8" points="0.321027287 275.765207 165.971108 275.765207 165.971108 0.290585045 0.321027287 0.290585045"></polygon>
                        <polygon id="Stroke-10" points="0.321027287 771.619527 165.971108 771.619527 165.971108 496.144905 0.321027287 496.144905"></polygon>
                    </g>
                    <polygon id="Fill-12" fill="#FFFFFF" points="330.337079 193.258427 495.505618 193.258427 495.505618 248.389513 467.977528 275.955056 467.977528 358.651685 440.449438 386.217228 467.977528 413.782772 467.977528 524.044944 495.505618 551.610487 495.505618 606.741573 330.337079 606.741573 330.337079 551.610487 357.865169 524.044944 357.865169 413.782772 385.393258 386.217228 357.865169 358.651685 357.865169 275.955056 330.337079 248.389513"></polygon>
                    <polygon id="Stroke-13" stroke="#000000" stroke-width="10" points="330.337079 193.258427 495.505618 193.258427 495.505618 248.389513 467.977528 275.955056 467.977528 358.651685 440.449438 386.217228 467.977528 413.782772 467.977528 524.044944 495.505618 551.610487 495.505618 606.741573 330.337079 606.741573 330.337079 551.610487 357.865169 524.044944 357.865169 413.782772 385.393258 386.217228 357.865169 358.651685 357.865169 275.955056 330.337079 248.389513"></polygon>
                    <polygon id="Fill-14" fill="#AAAAAA" points="357.865169 413.483146 110.11236 413.483146 110.11236 358.426966 715.730337 358.426966 715.730337 413.483146"></polygon>
                    <polygon id="Stroke-15" stroke="#000000" stroke-width="10" points="357.865169 413.483146 110.11236 413.483146 110.11236 358.426966 715.730337 358.426966 715.730337 413.483146"></polygon>
                    <path d="M220.224719,330.337079 L220.224719,440.449438" id="Stroke-16" stroke="#000000" stroke-width="10" stroke-linecap="round" stroke-linejoin="round"></path>
                    <path d="M660.674157,330.337079 L660.674157,440.449438" id="Stroke-17" stroke="#000000" stroke-width="10" stroke-linecap="round" stroke-linejoin="round"></path>
                    <g id="Group-30">
                        <polygon id="Stroke-18" stroke="#000000" stroke-width="10" points="358.407594 192.977528 468.597443 192.977528 468.597443 0.280898876 358.407594 0.280898876"></polygon>
                        <path d="M275.765207,688.483146 C275.765207,688.483146 275.765207,660.955056 303.31267,660.955056 L358.407594,660.955056 L413.502518,688.483146 L413.502518,716.011236 L358.407594,743.539326 L303.31267,743.539326 C303.31267,743.539326 275.765207,743.539326 275.765207,716.011236 L275.765207,688.483146 Z" id="Fill-20" fill="#FFFFFF"></path>
                        <path d="M551.23983,688.483146 C551.23983,688.483146 551.23983,660.955056 523.692367,660.955056 L468.597443,660.955056 L413.502518,688.483146 L413.502518,716.011236 L468.597443,743.539326 L523.692367,743.539326 C523.692367,743.539326 551.23983,743.539326 551.23983,716.011236 L551.23983,688.483146 Z" id="Fill-21" fill="#FFFFFF"></path>
                        <path d="M275.765207,688.483146 C275.765207,688.483146 275.765207,660.955056 303.31267,660.955056 L358.407594,660.955056 L413.502518,688.483146 L413.502518,716.011236 L358.407594,743.539326 L303.31267,743.539326 C303.31267,743.539326 275.765207,743.539326 275.765207,716.011236 L275.765207,688.483146 Z" id="Stroke-22" stroke="#000000" stroke-width="10"></path>
                        <path d="M551.23983,688.483146 C551.23983,688.483146 551.23983,660.955056 523.692367,660.955056 L468.597443,660.955056 L413.502518,688.483146 L413.502518,716.011236 L468.597443,743.539326 L523.692367,743.539326 C523.692367,743.539326 551.23983,743.539326 551.23983,716.011236 L551.23983,688.483146 Z" id="Stroke-23" stroke="#000000" stroke-width="10"></path>
                        <path d="M413.483146,605.617978 L413.483146,688.202247" id="Stroke-24" stroke="#000000" stroke-width="10"></path>
                        <path d="M82.9329717,303.089888 C128.579117,303.089888 165.575358,340.060112 165.575358,385.674157 C165.575358,431.288202 128.579117,468.258427 82.9329717,468.258427 C37.2868268,468.258427 0.290585045,431.288202 0.290585045,385.674157 C0.290585045,340.060112 37.2868268,303.089888 82.9329717,303.089888" id="Fill-25" fill="#67DDE0"></path>
                        <path d="M82.9329717,303.089888 C128.579117,303.089888 165.575358,340.060112 165.575358,385.674157 C165.575358,431.288202 128.579117,468.258427 82.9329717,468.258427 C37.2868268,468.258427 0.290585045,431.288202 0.290585045,385.674157 C0.290585045,340.060112 37.2868268,303.089888 82.9329717,303.089888 Z" id="Stroke-26" stroke="#000000" stroke-width="10"></path>
                        <path d="M647.655947,137.921348 L785.393258,137.921348" id="Stroke-27" stroke="#000000" stroke-width="10"></path>
                        <path d="M647.655947,633.426966 L785.393258,633.426966" id="Stroke-28" stroke="#000000" stroke-width="10"></path>
                        <path d="M344.633863,523.314607 L482.371174,523.314607" id="Stroke-29" stroke="#000000" stroke-width="10"></path>
                    </g>
                </g>
            </g>
        </g>
    </g>
</svg>
