<?xml version="1.0" encoding="UTF-8"?>
<svg viewBox="0 0 1000 1000" version="1.1" xmlns="http://www.w3.org/2000/svg" xmlns:xlink="http://www.w3.org/1999/xlink">
    <defs></defs>
    <g id="Satellites" stroke="none" stroke-width="1" fill="none" fill-rule="evenodd">
        <g id="La-rustine">
            <g id="Satellites/La-rustine">
                <rect id="Rectangle" x="0" y="0" width="1000" height="1000"></rect>
                <g id="space_shuttle" stroke-width="1" fill-rule="evenodd" transform="translate(243.000000, 100.000000)">
                    <path d="M363.084507,606 C363.084507,720.285714 254.084507,806 254.084507,806 C254.084507,806 145.084507,720.285714 145.084507,606 L363.084507,606 Z" id="Shape" fill="#FFD878" fill-rule="nonzero"></path>
                    <path d="M255.726471,746.676056 C234.859963,725.061918 206.462891,675.730826 193.811544,634 L317.614013,634 C304.99005,675.75908 276.592978,725.090172 255.726471,746.676056 Z" id="Shape" fill="#E57C5C" fill-rule="nonzero"></path>
                    <path d="M363.084507,606 C363.084507,720.285714 254.084507,806 254.084507,806 C254.084507,806 145.084507,720.285714 145.084507,606" id="Shape" stroke="#000000" stroke-width="10"></path>
                    <path d="M513,436.142857 C513,460.428571 513,460.428571 513,509 L339,509 L339,169 C363.403927,290.428571 513,411.857143 513,436.142857 Z" id="Shape" fill="#FFFFFF" fill-rule="nonzero"></path>
                    <path d="M170,169 L170,509 L0,509 C0,460.428571 0,460.428571 0,436.142857 C0,411.857143 145.714286,290.428571 170,169 Z" id="Shape" fill="#FFFFFF" fill-rule="nonzero"></path>
                    <path d="M170,509 L170,553.135 L145.714286,580.5375 L145.714286,606 C145.714286,606 0,557.5 0,509 L170,509 Z" id="Shape" fill="#BFBFBF" fill-rule="nonzero"></path>
                    <path d="M513,509 C513,557.5 366.576438,606 366.576438,606 L366.576438,580.5375 L339,557.5 L339,509 L513,509 Z" id="Shape" fill="#BFBFBF" fill-rule="nonzero"></path>
                    <path d="M340,121.304348 L340,558 L170,558 L170,121.304348 C170,72.7826087 206.428571,0 255,0 C303.571429,0 340,72.7826087 340,121.304348 Z" id="Shape" fill="#FFFFFF" fill-rule="nonzero"></path>
                    <path d="M169.222222,558 L145,582.2 L145,679 C145,679 193.444444,679 266.111111,679 C338.777778,679 363,679 363,679 L363,582.2 L338.777778,558 L169.222222,558 Z" id="Shape" fill="#AAAAAA" fill-rule="nonzero"></path>
                    <path d="M11,508 L157,508" id="Shape" stroke="#000000" stroke-width="10"></path>
                    <path d="M352,508 L498,508" id="Shape" stroke="#000000" stroke-width="10"></path>
                    <path d="M314,32.544 C301.859885,45.552 282.337599,60 255.457667,60 C230.07379,60 211.238217,47.136 199,34.752 C199,34.752 214.573683,0 255.457667,0 C296.341651,0 314,32.544 314,32.544 Z" id="Shape" fill="#AAAAAA" fill-rule="nonzero"></path>
                    <path d="M302,132.5 L302,157 L205,157 L205,132.5 C205,132.5 205,108 229.25,108 L277.75,108 C277.75,108 302,108 302,132.5 Z" id="Shape" fill="#4D5152" fill-rule="nonzero"></path>
                    <path d="M340,121.304348 L340,558 L170,558 L170,121.304348 C170,72.7826087 206.428571,0 255,0 C303.571429,0 340,72.7826087 340,121.304348 Z" id="Shape" stroke="#000000" stroke-width="10"></path>
                    <path d="M169.222222,558 L145,582.2 L145,679 C145,679 193.444444,679 266.111111,679 C338.777778,679 363,679 363,679 L363,582.2 L338.777778,558 L169.222222,558 Z" id="Shape" stroke="#000000" stroke-width="10"></path>
                    <path d="M170,169 C145.714286,290.388889 0,411.777778 0,436.055556 C0,460.333333 0,460.333333 0,508.888889 C0,557.444444 145.714286,606 145.714286,606" id="Shape" stroke="#000000" stroke-width="10"></path>
                    <path d="M363.285714,606 C363.285714,606 509,557.444444 509,508.888889 C509,460.333333 509,460.333333 509,436.055556 C509,411.777778 364.285714,294.388889 340,173" id="Shape" stroke="#000000" stroke-width="10"></path>
                    <path d="M3,512 L165.915601,512" id="Shape" stroke="#000000" stroke-width="10"></path>
                    <path d="M341.367836,512 L510.517836,512" id="Shape" stroke="#000000" stroke-width="10"></path>
                    <path d="M302,132.5 L302,157 L205,157 L205,132.5 C205,132.5 205,108 229.25,108 L277.75,108 C277.75,108 302,108 302,132.5 Z" id="Shape" fill="#4D5152" fill-rule="nonzero"></path>
                    <path d="M199,34.1713287 C211.238217,46.3496503 230.07379,59 255.457667,59 C282.337599,59 301.859885,44.791958 314,32" id="Shape" stroke="#000000" stroke-width="10"></path>
                    <path d="M169.567657,465 L340.716172,465" id="Shape" stroke="#000000" stroke-width="10"></path>
                </g>
            </g>
        </g>
    </g>
</svg>
