<?xml version="1.0" encoding="UTF-8"?>
<svg width="200px" height="200px" viewBox="0 0 200 200" version="1.1" xmlns="http://www.w3.org/2000/svg" xmlns:xlink="http://www.w3.org/1999/xlink">
    <!-- Generator: Sketch 46 (44423) - http://www.bohemiancoding.com/sketch -->
    <title>Rosalie</title>
    <desc>Created with Sketch.</desc>
    <defs>
        <path d="M146.630086,86.2562453 L-57.5869073,204.160981 L-81.3004371,163.087943 L122.916556,45.1832069 C134.258562,38.6348965 148.76153,42.5209549 155.30984,53.8629612 C161.858151,65.2049676 157.972092,79.7079348 146.630086,86.2562453 Z" id="path-1"></path>
        <filter x="-6.9%" y="-10.2%" width="113.8%" height="120.4%" filterUnits="objectBoundingBox" id="filter-2">
            <feMorphology radius="0.5" operator="dilate" in="SourceAlpha" result="shadowSpreadOuter1"></feMorphology>
            <feOffset dx="0" dy="0" in="shadowSpreadOuter1" result="shadowOffsetOuter1"></feOffset>
            <feGaussianBlur stdDeviation="5" in="shadowOffsetOuter1" result="shadowBlurOuter1"></feGaussianBlur>
            <feColorMatrix values="0 0 0 0 0   0 0 0 0 1   0 0 0 0 0.8  0 0 0 0.5 0" type="matrix" in="shadowBlurOuter1"></feColorMatrix>
        </filter>
    </defs>
    <g id="Fusées" stroke="none" stroke-width="1" fill="none" fill-rule="evenodd">
        <g id="Rosalie">
            <g id="Rectangle">
                <use fill="black" fill-opacity="1" filter="url(#filter-2)" xlink:href="#path-1"></use>
                <use fill="#00FFCC" fill-rule="evenodd" xlink:href="#path-1"></use>
            </g>
            <path d="M134.7063,80.6940708 L125.371519,86.0835094 C124.855973,86.3811599 124.196747,86.2045209 123.899097,85.6889751 C123.601446,85.1734294 123.778085,84.5142036 124.293631,84.2165531 L133.628413,78.8271145 C134.143958,78.5294641 134.803184,78.7061031 135.100835,79.2216488 C135.398485,79.7371946 135.221846,80.3964204 134.7063,80.6940708 Z" id="Rectangle-3" fill-opacity="0.75" fill="#FFFFFF" opacity="0.5"></path>
            <path d="M68.8522126,93.8221956 L67.9187344,94.3611394 C67.4031887,94.6587899 67.2265496,95.3180157 67.5242001,95.8335614 L68.063144,96.7670396 C68.6584449,97.7981311 69.9768965,98.1514091 71.007988,97.5561081 L95.2784197,83.5435678 C96.3095112,82.9482669 97.6279628,83.3015449 98.2232637,84.3326364 C98.8185647,85.3637279 98.4652867,86.6821795 97.4341952,87.2774804 L65.6959383,105.601572 C64.6648468,106.196873 64.3115687,107.515324 64.9068697,108.546416 C65.5021706,109.577507 66.8206222,109.930785 67.8517137,109.335484 L82.787364,100.712382 C83.8184555,100.117081 85.1369071,100.47036 85.732208,101.501451 C86.327509,102.532542 85.9742309,103.850994 84.9431394,104.446295 L81.2092269,106.60207 C80.1781354,107.197371 79.8248573,108.515823 80.4201583,109.546914 C81.0154592,110.578006 82.3339108,110.931284 83.3650023,110.335983 L89.8950799,106.565841 C90.9261713,105.97054 92.2446229,106.323818 92.8399239,107.35491 C93.4352248,108.386001 93.0819468,109.704453 92.0508553,110.299754 L70.5851274,122.692997 C69.5540359,123.288298 69.2007579,124.60675 69.7960588,125.637841 C70.3913598,126.668933 71.7098114,127.022211 72.7409028,126.42691 L145.552198,84.389289 C155.863113,78.4362795 159.395893,65.2517638 153.442884,54.9408489 C147.489874,44.6299341 134.305359,41.0971537 123.994444,47.0501632 L54.9170611,86.9320087 C53.8859696,87.5273096 53.5326916,88.8457612 54.1279925,89.8768527 C54.7232935,90.9079442 54.3700154,92.2263958 53.338924,92.8216967 L42.1371862,99.289023 C41.1060947,99.8843239 40.7528167,101.202776 41.3481177,102.233867 C41.9434186,103.264958 43.2618702,103.618237 44.2929617,103.022936 L55.4946994,96.5556093 C56.5257909,95.9603083 57.8442424,96.3135864 58.4395434,97.3446779 C59.0348443,98.3757693 60.3532959,98.7290474 61.3843874,98.1337464 L68.8522126,93.8221956 Z" id="Combined-Shape" fill-opacity="0.75" fill="#FFFFFF"></path>
            <path d="M151.575928,56.0187367 C156.933636,65.29856 153.754134,77.1646242 144.47431,82.5223327 L123.004313,94.9180414 C122.488767,95.2156919 121.829542,95.0390529 121.531891,94.5235071 C121.234241,94.0079614 121.41088,93.3487356 121.926425,93.0510851 L132.419337,86.9929998 C132.934883,86.6953493 133.111522,86.0361236 132.813871,85.5205778 C132.516221,85.0050321 131.856995,84.8283931 131.341449,85.1260435 L112.764749,95.8513065 C112.249203,96.148957 111.589977,95.9723179 111.292327,95.4567722 C110.994676,94.9412264 111.171315,94.2820007 111.686861,93.9843502 L134.7063,80.6940708 C135.221846,80.3964204 135.398485,79.7371946 135.100835,79.2216488 C134.803184,78.7061031 134.143958,78.5294641 133.628413,78.8271145 L114.95885,89.6059917 C114.443304,89.9036422 113.784078,89.7270032 113.486428,89.2114574 C113.188777,88.6959117 113.365416,88.0366859 113.880962,87.7390354 L125.0827,81.2717091 C125.598245,80.9740586 125.774884,80.3148329 125.477234,79.7992871 C125.179583,79.2837414 124.520358,79.1071024 124.004812,79.4047528 L122.137856,80.4826405 C121.62231,80.780291 120.963084,80.603652 120.665434,80.0881063 C120.367783,79.5725605 120.544422,78.9133347 121.059968,78.6156843 L127.458949,74.9212308 C127.974495,74.6235804 128.151134,73.9643546 127.853483,73.4488088 C127.555833,72.9332631 126.896607,72.7566241 126.381061,73.0542746 L106.297423,84.6495687 C105.781877,84.9472192 105.122651,84.7705802 104.825001,84.2550345 C104.52735,83.7394887 104.703989,83.0802629 105.219535,82.7826125 L120.771149,73.803884 C121.286695,73.5062335 121.463334,72.8470077 121.165683,72.331462 C120.868033,71.8159162 120.208807,71.6392772 119.693261,71.9369277 L112.225436,76.2484785 C111.70989,76.546129 111.050664,76.36949 110.753014,75.8539443 C110.455363,75.3383985 110.632002,74.6791727 111.147548,74.3815222 L122.349286,67.914196 C122.864832,67.6165455 123.041471,66.9573197 122.74382,66.441774 C122.44617,65.9262282 121.786944,65.7495892 121.271398,66.0472397 L119.404442,67.1251274 C118.888896,67.4227779 118.22967,67.2461388 117.93202,66.7305931 C117.634369,66.2150474 117.811008,65.5558216 118.326554,65.2581711 L129.528292,58.7908448 C130.043838,58.4931943 130.220477,57.8339685 129.922826,57.3184228 C129.625176,56.8028771 128.96595,56.626238 128.450404,56.9238885 L115.38171,64.4691025 C114.866164,64.766753 114.206939,64.590114 113.909288,64.0745682 C113.611638,63.5590225 113.788277,62.8997967 114.303822,62.6021462 L121.771648,58.2905954 C122.287193,57.9929449 122.463832,57.3337191 122.166182,56.8181734 C121.868531,56.3026276 121.209306,56.1259886 120.69376,56.4236391 L107.625066,63.9688531 C107.10952,64.2665036 106.450294,64.0898645 106.152644,63.5743188 C105.854993,63.0587731 106.031632,62.3995473 106.547178,62.1018968 L108.414134,61.0240091 C108.92968,60.7263586 109.106319,60.0671328 108.808669,59.5515871 C108.511018,59.0360413 108.687657,58.3768156 109.203203,58.0791651 L125.072331,48.9171195 C134.352155,43.559411 146.218219,46.7389133 151.575928,56.0187367 L151.575928,56.0187367 Z" id="Combined-Shape" fill="#FFFFFF"></path>
            <path d="M107.779844,98.7293429 L102.178975,101.963006 C101.663429,102.260656 101.004203,102.084017 100.706553,101.568472 C100.408902,101.052926 100.585541,100.3937 101.101087,100.09605 L106.701956,96.8623866 C107.217502,96.5647361 107.876727,96.7413751 108.174378,97.2569209 C108.472028,97.7724666 108.295389,98.4316924 107.779844,98.7293429 Z" id="Rectangle-3" fill="#FFFFFF"></path>
            <path d="M118.403943,82.638416 C117.888397,82.9360664 117.229172,82.7594274 116.931521,82.2438817 C116.633871,81.7283359 116.81051,81.0691102 117.326055,80.7714597 C117.841601,80.4738092 118.500827,80.6504482 118.798477,81.165994 C119.096128,81.6815397 118.919489,82.3407655 118.403943,82.638416 L118.403943,82.638416 Z" id="Rectangle-3" fill="#FFFFFF"></path>
            <path d="M114.67003,84.7941914 L105.335249,90.18363 C104.819703,90.4812805 104.160478,90.3046414 103.862827,89.7890957 C103.565177,89.27355 103.741816,88.6143242 104.257361,88.3166737 L113.592143,82.9272351 C114.107689,82.6295846 114.766914,82.8062237 115.064565,83.3217694 C115.362215,83.8373151 115.185576,84.4965409 114.67003,84.7941914 Z" id="Rectangle-3" fill="#FFFFFF"></path>
            <path d="M127.594315,74.8430773 L124.79388,76.4599088 C124.278335,76.7575593 123.619109,76.5809203 123.321458,76.0653745 C123.023808,75.5498288 123.200447,74.890603 123.715993,74.5929525 L126.516427,72.976121 C127.031973,72.6784705 127.691199,72.8551095 127.988849,73.3706552 C128.2865,73.886201 128.109861,74.5454268 127.594315,74.8430773 Z" id="Rectangle-3" fill-opacity="0.75" fill="#FFFFFF" opacity="0.5"></path>
            <path d="M132.474728,86.9610195 L123.139947,92.3504581 C122.624401,92.6481086 121.965175,92.4714696 121.667525,91.9559238 C121.369874,91.4403781 121.546513,90.7811523 122.062059,90.4835018 L131.396841,85.0940633 C131.912386,84.7964128 132.571612,84.9730518 132.869263,85.4885975 C133.166913,86.0041433 132.990274,86.6633691 132.474728,86.9610195 L132.474728,86.9610195 Z" id="Rectangle-3" fill-opacity="0.75" fill="#FFFFFF" opacity="0.5"></path>
            <path d="M121.771648,58.2905954 L118.037735,60.4463708 C117.522189,60.7440213 116.862964,60.5673823 116.565313,60.0518365 C116.267663,59.5362908 116.444302,58.877065 116.959847,58.5794145 L120.69376,56.4236391 C121.209306,56.1259886 121.868531,56.3026276 122.166182,56.8181734 C122.463832,57.3337191 122.287193,57.9929449 121.771648,58.2905954 Z" id="Rectangle-3" fill-opacity="0.75" fill="#FFFFFF" opacity="0.5"></path>
            <path d="M129.528292,58.7908448 L125.794379,60.9466202 C125.278834,61.2442707 124.619608,61.0676317 124.321957,60.5520859 C124.024307,60.0365402 124.200946,59.3773144 124.716492,59.0796639 L128.450404,56.9238885 C128.96595,56.626238 129.625176,56.8028771 129.922826,57.3184228 C130.220477,57.8339685 130.043838,58.4931943 129.528292,58.7908448 Z" id="Rectangle-3" fill-opacity="0.75" fill="#FFFFFF" opacity="0.5"></path>
            <path d="M112.725685,68.4918342 L110.858729,69.569722 C110.343183,69.8673724 109.683958,69.6907334 109.386307,69.1751877 C109.088657,68.6596419 109.265296,68.0004161 109.780841,67.7027657 L111.647798,66.624878 C112.163343,66.3272275 112.822569,66.5038665 113.12022,67.0194122 C113.41787,67.534958 113.241231,68.1941838 112.725685,68.4918342 Z" id="Rectangle-3" fill-opacity="0.75" fill="#FFFFFF" opacity="0.5"></path>
            <path d="M116.289832,75.5001707 C120.391151,82.6038633 128.063147,86.3607385 135.729819,85.8126098 L94.5075157,109.612318 L95.5436728,111.406995 L144.598171,83.0853671 C154.509897,77.3628294 157.905905,64.6887546 152.183367,54.7770285 C146.46083,44.8653025 133.786755,41.4692944 123.875029,47.1918321 L73.6240795,76.204231 L74.6602367,77.9989078 L117.078992,53.5084282 C113.13829,59.3311399 112.314925,66.9587908 115.342288,73.6543334 L70.325414,99.6448375 L71.3615711,101.439514 L116.289832,75.5001707 Z" id="Combined-Shape" fill="#0D005E"></path>
        </g>
    </g>
</svg>