<?xml version="1.0" encoding="UTF-8"?>
<svg viewBox="0 0 128 219" version="1.1" xmlns="http://www.w3.org/2000/svg" xmlns:xlink="http://www.w3.org/1999/xlink">
    <g id="Affiches" stroke="none" stroke-width="1" fill="none" fill-rule="evenodd">
        <g id="Recto" transform="translate(-184.000000, -216.000000)" stroke="#000000" stroke-width="3.15">
            <g id="Group-4" transform="translate(185.000000, 218.000000)">
                <g id="Group" transform="translate(62.500000, 107.500000) rotate(-270.000000) translate(-62.500000, -107.500000) translate(-45.000000, 45.000000)">
                    <path d="M86.3170347,20.4948436 L121.167618,20.4948436 L121.167618,20.4948436 C123.086964,20.4948436 124.642902,22.0507808 124.642902,23.9701267 L124.642902,23.9701267 C124.642902,25.8894726 123.086964,27.4454099 121.167618,27.4454099 L86.3170347,27.4454099 L86.3170347,27.4454099 C84.3976888,27.4454099 82.8417515,25.8894726 82.8417515,23.9701267 C82.8417515,22.0507808 84.3976888,20.4948436 86.3170347,20.4948436 Z M96.7673222,48.2971089 L107.233902,48.2971089 C109.153248,48.2971089 110.709185,49.8530462 110.709185,51.7723921 C110.709185,53.6917379 109.153248,55.2476752 107.233902,55.2476752 L96.7673222,55.2476752 C94.8479763,55.2476752 93.2920391,53.6917379 93.2920391,51.7723921 C93.2920391,49.8530462 94.8479763,48.2971089 96.7673222,48.2971089 Z M102.689152,6.59371089 L137.539736,6.59371089 L137.539736,6.59371089 C139.459082,6.59371089 141.015019,8.14964816 141.015019,10.0689941 L141.015019,10.0689941 C141.015019,11.9883399 139.459082,13.5442772 137.539736,13.5442772 L102.689152,13.5442772 L102.689152,13.5442772 C100.769806,13.5442772 99.2138687,11.9883399 99.2138687,10.0689941 L99.2138687,10.0689941 C99.2138687,8.14964816 100.769806,6.59371089 102.689152,6.59371089 L102.689152,6.59371089 Z M86.3170347,103.90164 L100.267043,103.90164 C102.186389,103.90164 103.742327,105.457577 103.742327,107.376923 C103.742327,109.296269 102.186389,110.852206 100.267043,110.852206 L86.3170347,110.852206 C84.3976888,110.852206 82.8417515,109.296269 82.8417515,107.376923 C82.8417515,105.457577 84.3976888,103.90164 86.3170347,103.90164 Z M65.4164596,90.0005069 L79.3664684,90.0005069 C81.2858143,90.0005069 82.8417515,91.5564442 82.8417515,93.4757901 C82.8417515,95.3951359 81.2858143,96.9510732 79.3664684,96.9510732 L65.4164596,96.9510732 L65.4164596,96.9510732 C63.4971137,96.9510732 61.9411765,95.3951359 61.9411765,93.4757901 C61.9411765,91.5564442 63.4971137,90.0005069 65.4164596,90.0005069 L65.4164596,90.0005069 Z M128.118185,90.0005069 L135.101335,90.0005069 C137.020681,90.0005069 138.576618,91.5564442 138.576618,93.4757901 C138.576618,95.3951359 137.020681,96.9510732 135.101335,96.9510732 L128.118185,96.9510732 C126.198839,96.9510732 124.642902,95.3951359 124.642902,93.4757901 C124.642902,91.5564442 126.198839,90.0005069 128.118185,90.0005069 Z" id="Combined-Shape" fill="#FA7921"></path>
                    <path d="M0,62.0272059 L0,62.0272059 C-4.19523334e-15,27.770526 27.770526,1.33982723e-14 62.0272059,7.10542736e-15 L142.075422,2.63200919e-15 L142.075422,1.15463195e-14 C143.978571,1.11967185e-14 145.521378,1.542807 145.521378,3.44595588 L145.521378,3.44595588 C145.521378,5.34910476 143.978571,6.89191176 142.075422,6.89191176 L103.091161,6.89191176 L103.091161,6.89191176 C101.188012,6.89191176 99.6452047,8.43471876 99.6452047,10.3378676 L99.6452047,10.3378676 C99.6452047,12.2410165 101.188012,13.7838235 103.091161,13.7838235 L172.080054,13.7838235 L172.080054,13.7838235 C173.983203,13.7838235 175.52601,15.3266305 175.52601,17.2297794 C175.52601,19.1329283 173.983203,20.6757353 172.080054,20.6757353 L86.6010288,20.6757353 L86.6010288,20.6757353 C84.6978799,20.6757353 83.1550729,22.2185423 83.1550729,24.1216912 L83.1550729,24.1216912 C83.1550729,26.0248401 84.6978799,27.5676471 86.6010288,27.5676471 L155.9346,27.5676471 L155.9346,27.5676471 C157.837749,27.5676471 159.380556,29.1104541 159.380556,31.0136029 L159.380556,31.0136029 C159.380556,32.9167518 157.837749,34.4595588 155.9346,34.4595588 L114.319386,34.4595588 L114.319386,34.4595588 C112.416237,34.4595588 110.87343,36.0023658 110.87343,37.9055147 L110.87343,37.9055147 C110.87343,39.8086636 112.416237,41.3514706 114.319386,41.3514706 L121.286653,41.3514706 L121.286653,41.3514706 C123.189802,41.3514706 124.732609,42.8942776 124.732609,44.7974265 C124.732609,46.7005754 123.189802,48.2433824 121.286653,48.2433824 L97.4978514,48.2433824 L97.4978514,48.2433824 C95.5947025,48.2433824 94.0518955,49.7861894 94.0518955,51.6893382 C94.0518955,53.5924871 95.5947025,55.1352941 97.4978514,55.1352941 L172.080054,55.1352941 L172.080054,55.1352941 C173.983203,55.1352941 175.52601,56.6781011 175.52601,58.58125 C175.52601,60.4843989 173.983203,62.0272059 172.080054,62.0272059 L114.319386,62.0272059 L114.319386,62.0272059 C112.416237,62.0272059 110.87343,63.5700129 110.87343,65.4731618 C110.87343,67.3763106 112.416237,68.9191176 114.319386,68.9191176 L142.075422,68.9191176 C143.978571,68.9191176 145.521378,70.4619246 145.521378,72.3650735 C145.521378,74.2682224 143.978571,75.8110294 142.075422,75.8110294 L100.460208,75.8110294 L100.460208,75.8110294 C98.5570587,75.8110294 97.0142517,77.3538364 97.0142517,79.2569853 C97.0142517,81.1601342 98.5570587,82.7029412 100.460208,82.7029412 L107.427475,82.7029412 L107.427475,82.7029412 C109.330623,82.7029412 110.87343,84.2457482 110.87343,86.1488971 C110.87343,88.0520459 109.330623,89.5948529 107.427475,89.5948529 L65.8122605,89.5948529 L65.8122605,89.5948529 C63.9091117,89.5948529 62.3663047,91.1376599 62.3663047,93.0408088 C62.3663047,94.9439577 63.9091117,96.4867647 65.8122605,96.4867647 L114.357064,96.4867647 L114.357064,96.4867647 C116.260213,96.4867647 117.80302,98.0295717 117.80302,99.9327206 C117.80302,101.835869 116.260213,103.378676 114.357064,103.378676 L86.6010288,103.378676 L86.6010288,103.378676 C84.6978799,103.378676 83.1550729,104.921483 83.1550729,106.824632 L83.1550729,106.824632 C83.1550729,108.727781 84.6978799,110.270588 86.6010288,110.270588 L135.145832,110.270588 L135.145832,110.270588 C137.048981,110.270588 138.591788,111.813395 138.591788,113.716544 C138.591788,115.619693 137.048981,117.1625 135.145832,117.1625 L128.178565,117.1625 L128.178565,117.1625 C126.275416,117.1625 124.732609,118.705307 124.732609,120.608456 L124.732609,120.608456 C124.732609,122.511605 123.189802,124.054412 121.286653,124.054412 L62.0272059,124.054412 L62.0272059,124.054412 C27.770526,124.054412 1.94082552e-14,96.2838858 0,62.0272059 L0,62.0272059 Z M190.54487,13.7838235 L211.371316,13.7838235 L211.371316,13.7838235 C213.274465,13.7838235 214.817272,15.3266305 214.817272,17.2297794 L214.817272,17.2297794 C214.817272,19.1329283 213.274465,20.6757353 211.371316,20.6757353 L190.54487,20.6757353 C188.641721,20.6757353 187.098914,19.1329283 187.098914,17.2297794 C187.098914,15.3266305 188.641721,13.7838235 190.54487,13.7838235 Z M135.108155,41.3514706 L135.145832,41.3514706 C137.048981,41.3514706 138.591788,42.8942776 138.591788,44.7974265 C138.591788,46.7005754 137.048981,48.2433824 135.145832,48.2433824 L135.108155,48.2433824 C133.205006,48.2433824 131.662199,46.7005754 131.662199,44.7974265 C131.662199,42.8942776 133.205006,41.3514706 135.108155,41.3514706 Z M148.967333,41.3514706 L183.652958,41.3514706 C185.556107,41.3514706 187.098914,42.8942776 187.098914,44.7974265 C187.098914,46.7005754 185.556107,48.2433824 183.652958,48.2433824 L148.967333,48.2433824 C147.064185,48.2433824 145.521378,46.7005754 145.521378,44.7974265 C145.521378,42.8942776 147.064185,41.3514706 148.967333,41.3514706 Z" id="Combined-Shape" fill="#FF0000"></path>
                </g>
            </g>
        </g>
    </g>
</svg>
