<?xml version="1.0" encoding="UTF-8"?>
<svg width="263px" height="453px" viewBox="0 0 263 453" version="1.1" xmlns="http://www.w3.org/2000/svg" xmlns:xlink="http://www.w3.org/1999/xlink">
    <!-- Generator: Sketch 46 (44423) - http://www.bohemiancoding.com/sketch -->
    <title>Logo</title>
    <desc>Created with Sketch.</desc>
    <defs></defs>
    <g id="Logo" stroke="none" stroke-width="1" fill="none" fill-rule="evenodd">
        <g id="Combined-Shape">
            <path d="M218.789306,182.614703 L218.789306,255.460585 C218.789306,259.483752 215.527885,262.745173 211.504718,262.745173 C207.481551,262.745173 204.22013,259.483752 204.22013,255.460585 L204.22013,182.614703 C204.22013,178.591536 207.481551,175.330115 211.504718,175.330115 C215.527885,175.330115 218.789306,178.591536 218.789306,182.614703 Z M160.512601,204.468468 L160.512601,226.322232 C160.512601,230.345399 157.25118,233.60682 153.228013,233.60682 C149.204846,233.60682 145.943425,230.345399 145.943425,226.322232 L145.943425,204.468468 C145.943425,200.445301 149.204846,197.18388 153.228013,197.18388 C157.25118,197.18388 160.512601,200.445301 160.512601,204.468468 Z M247.927659,216.852267 L247.927659,289.698149 C247.927659,293.721316 244.666237,296.982737 240.64307,296.982737 C236.619904,296.982737 233.358482,293.721316 233.358482,289.698149 L233.358482,216.852267 C233.358482,212.829101 236.619904,209.567679 240.64307,209.567679 C244.666237,209.567679 247.927659,212.829101 247.927659,216.852267 Z M43.9591909,182.614703 L43.9591909,211.753056 C43.9591909,215.776223 40.6977697,219.037644 36.6746028,219.037644 C32.6514358,219.037644 29.3900146,215.776223 29.3900146,211.753056 L29.3900146,182.614703 C29.3900146,178.591536 32.6514358,175.330115 36.6746028,175.330115 C40.6977697,175.330115 43.9591909,178.591536 43.9591909,182.614703 Z M73.0975434,138.907174 L73.0975434,168.045527 C73.0975434,172.068694 69.8361222,175.330115 65.8129553,175.330115 C61.7897884,175.330115 58.5283672,172.068694 58.5283672,168.045527 L58.5283672,138.907174 C58.5283672,134.884008 61.7897884,131.622586 65.8129553,131.622586 C69.8361222,131.622586 73.0975434,134.884008 73.0975434,138.907174 Z M73.0975434,270.029761 L73.0975434,284.598937 C73.0975434,288.622104 69.8361222,291.883525 65.8129553,291.883525 C61.7897884,291.883525 58.5283672,288.622104 58.5283672,284.598937 L58.5283672,270.029761 C58.5283672,266.006594 61.7897884,262.745173 65.8129553,262.745173 C69.8361222,262.745173 73.0975434,266.006594 73.0975434,270.029761 Z" fill="#FA7921"></path>
            <path d="M131.371295,0.5 L131.375,0.5 C203.793338,0.5 262.5,59.2066622 262.5,131.625 L262.5,299.164965 C262.5,303.188206 259.238519,306.449687 255.215278,306.449687 C251.192037,306.449687 247.930556,303.188206 247.930556,299.164965 L247.930556,217.282596 C247.930556,213.259355 244.669074,209.997874 240.645833,209.997874 C236.622592,209.997874 233.361111,213.259355 233.361111,217.282596 L233.361111,362.247847 C233.361111,366.271088 230.09963,369.532569 226.076389,369.532569 C222.053148,369.532569 218.791667,366.271088 218.791667,362.247847 L218.791667,182.613115 C218.791667,178.589874 215.530185,175.328393 211.506944,175.328393 C207.483703,175.328393 204.222222,178.589874 204.222222,182.613115 L204.222222,328.303031 C204.222222,332.326272 200.960741,335.587753 196.9375,335.587753 C192.914259,335.587753 189.652778,332.326272 189.652778,328.303031 L189.652778,240.889246 C189.652778,236.866005 186.391297,233.604524 182.368056,233.604524 C178.344815,233.604524 175.083333,236.866005 175.083333,240.889246 L175.083333,255.457867 C175.083333,259.481108 171.821852,262.742589 167.798611,262.742589 C163.77537,262.742589 160.513889,259.481108 160.513889,255.457867 L160.513889,205.52301 C160.513889,201.499769 157.252408,198.238288 153.229167,198.238288 C149.205926,198.238288 145.944444,201.499769 145.944444,205.52301 L145.944444,362.247847 C145.944444,366.271088 142.682963,369.532569 138.659722,369.532569 C134.636481,369.532569 131.375,366.271088 131.375,362.247847 L131.375,240.889246 C131.375,236.866005 128.113519,233.604524 124.090278,233.604524 C120.067037,233.604524 116.805556,236.866005 116.805556,240.889246 L116.805556,299.164965 C116.805556,303.188206 113.544074,306.449687 109.520833,306.449687 C105.497592,306.449687 102.236111,303.188206 102.236111,299.164965 L102.236111,211.75118 C102.236111,207.727939 98.9746299,204.466458 94.9513889,204.466458 C90.9281479,204.466458 87.6666667,207.727939 87.6666667,211.75118 L87.6666667,226.319801 C87.6666667,230.343042 84.4051854,233.604524 80.3819444,233.604524 C76.3587035,233.604524 73.0972222,230.343042 73.0972222,226.319801 L73.0972222,138.906017 C73.0972222,134.882776 69.835741,131.621295 65.8125,131.621295 C61.789259,131.621295 58.5277778,134.882776 58.5277778,138.906017 L58.5277778,240.888834 C58.5277778,244.912075 55.2662965,248.173556 51.2430556,248.173556 C47.2198146,248.173556 43.9583333,244.912075 43.9583333,240.888834 L43.9583333,182.613115 C43.9583333,178.589874 40.6968521,175.328393 36.6736111,175.328393 C32.6503701,175.328393 29.3888889,178.589874 29.3888889,182.613115 L29.3888889,284.595932 C29.3888889,288.619173 26.1274077,291.880655 22.1041667,291.880655 C18.0809257,291.880655 14.8194444,288.619173 14.8194444,284.595932 L14.8194444,270.027311 C14.8194444,266.00407 11.5579632,262.742589 7.53472222,262.742589 C3.51148123,262.742589 0.25,259.481108 0.25,255.457867 L0.25,131.621295 C0.25,59.2050032 58.9550032,0.5 131.371295,0.5 L131.371295,0.5 Z M233.361111,401.148606 L233.361111,444.855292 C233.361111,448.878533 230.09963,452.140015 226.076389,452.140015 C222.053148,452.140015 218.791667,448.878533 218.791667,444.855292 L218.791667,401.148606 C218.791667,397.125365 222.053148,393.863884 226.076389,393.863884 C230.09963,393.863884 233.361111,397.125365 233.361111,401.148606 Z M175.083333,284.596138 C175.083333,288.619266 171.821944,291.880655 167.798817,291.880655 L167.798405,291.880655 C163.775278,291.880655 160.513889,288.619266 160.513889,284.596138 C160.513889,280.573011 163.775278,277.311622 167.798405,277.311622 L167.798817,277.311622 C171.821944,277.311622 175.083333,280.573011 175.083333,284.596138 Z M175.083333,313.73441 L175.083333,386.579162 C175.083333,390.602402 171.821852,393.863884 167.798611,393.863884 C163.77537,393.863884 160.513889,390.602402 160.513889,386.579162 L160.513889,313.73441 C160.513889,309.711169 163.77537,306.449687 167.798611,306.449687 C171.821852,306.449687 175.083333,309.711169 175.083333,313.73441 Z" fill="#FF0000"></path>
        </g>
    </g>
</svg>