<?xml version="1.0" encoding="UTF-8"?>
<svg viewBox="0 0 1000 1000" version="1.1" xmlns="http://www.w3.org/2000/svg" xmlns:xlink="http://www.w3.org/1999/xlink">
    <!-- Generator: Sketch 46.1 (44463) - http://www.bohemiancoding.com/sketch -->
    <title>Arcade aux Grottes</title>
    <desc>Created with Sketch.</desc>
    <defs>
        <path d="M200,0 C310.45695,-2.02906125e-14 400,89.54305 400,200 C400,310.45695 310.45695,400 200,400 C89.54305,400 1.3527075e-14,310.45695 0,200 C-1.3527075e-14,89.54305 89.54305,2.02906125e-14 200,0 Z" id="path-1"></path>
        <path d="M75,0 C116.421356,-7.6089797e-15 150,33.5786438 150,75 C150,116.421356 116.421356,150 75,150 C33.5786438,150 5.07265313e-15,116.421356 0,75 C-5.07265313e-15,33.5786438 33.5786438,7.6089797e-15 75,0 Z" id="path-3"></path>
    </defs>
    <g id="Planètes" stroke="none" stroke-width="1" fill="none" fill-rule="evenodd">
        <g id="Arcade-aux-Grottes">
            <g id="Combined-Shape" transform="translate(300.000000, 300.000000)">
                <mask id="mask-2" fill="white">
                    <use xlink:href="#path-1"></use>
                </mask>
                <use id="Mask" fill="#D84A05" xlink:href="#path-1"></use>
                <path d="M160,370 L160,350 C160,344.477153 164.477153,340 170,340 L280,340 C285.522847,340 290,335.522847 290,330 C290,324.477153 285.522847,320 280,320 L100,320 C94.4771525,320 90,315.522847 90,310 C90,304.477153 94.4771525,300 100,300 L250,300 C255.522847,300 260,295.522847 260,290 C260,284.477153 255.522847,280 250,280 L180,280 C174.477153,280 170,275.522847 170,270 C170,264.477153 174.477153,260 180,260 L190,260 C195.522847,260 200,255.522847 200,250 C200,244.477153 195.522847,240 190,240 L100,240 C94.4771525,240 90,235.522847 90,230 C90,224.477153 94.4771525,220 100,220 L260,220 C265.522847,220 270,215.522847 270,210 C270,204.477153 265.522847,200 260,200 L220,200 C214.477153,200 210,195.522847 210,190 C210,184.477153 205.522847,180 200,180 L160,180 C154.477153,180 150,175.522847 150,170 C150,164.477153 145.522847,160 140,160 L90,160 C84.4771525,160 80,155.522847 80,150 C80,144.477153 84.4771525,140 90,140 L110,140 C115.522847,140 120,135.522847 120,130 C120,124.477153 124.477153,120 130,120 L210,120 C215.522847,120 220,115.522847 220,110 C220,104.477153 224.477153,100 230,100 L250,100 C255.522847,100 260,95.5228475 260,90 C260,84.4771525 255.522847,80 250,80 L130,80 C124.477153,80 120,75.5228475 120,70 C120,64.4771525 124.477153,60 130,60 L210,60 C215.522847,60 220,55.5228475 220,50 C220,44.4771525 215.522847,40 210,40 L130,40 C124.477153,40 120,35.5228475 120,30 C120,24.4771525 124.477153,20 130,20 L180,20 C185.522847,20 190,15.5228475 190,10 C190,4.4771525 185.522847,6.05551308e-14 180,6.15696594e-14 L-100,0 C-155.228475,1.84242541e-14 -200,44.771525 -200,100 L-200,300 C-200,355.228475 -155.228475,400 -100,400 L210,400 C215.522847,400 220,395.522847 220,390 C220,384.477153 215.522847,380 210,380 L170,380 C164.477153,380 160,375.522847 160,370 Z" fill="#81D6E3" mask="url(#mask-2)"></path>
            </g>
            <path d="M306.422821,517.66499 C304.685388,519.122397 302.445182,520 300,520 L230,520 C218.954305,520 210,528.954305 210,540 C210,551.045695 218.954305,560 230,560 L250,560 C261.045695,560 270,568.954305 270,580 C270,591.045695 278.954305,600 290,600 L810,600 C821.045695,600 830,591.045695 830,580 C830,568.954305 838.954305,560 850,560 L870,560 C881.045695,560 890,551.045695 890,540 C890,528.954305 881.045695,520 870,520 L691.717752,520 C667.130632,548.914889 590.60059,570 500,570 C406.977868,570 328.78848,547.772715 306.422821,517.66499 Z M300,500 L130,500 C118.954305,500 110,491.045695 110,480 C110,468.954305 118.954305,460 130,460 L200,460 C205.522847,460 210,455.522847 210,450 C210,444.477153 205.522847,440 200,440 L130,440 C118.954305,440 110,431.045695 110,420 C110,408.954305 118.954305,400 130,400 L326.756439,400 C309.739441,429.417294 300,463.571263 300,500 Z M673.243561,400 L830,400 C841.045695,400 850,408.954305 850,420 C850,431.045695 841.045695,440 830,440 L690.843958,440 C686.4259,425.933431 680.495578,412.536565 673.243529,399.999944 Z M696.195256,460.978041 C704.208465,463.586101 710,471.116708 710,480 C710,487.410004 705.970208,493.878799 699.9826,497.33441 C699.820302,484.909442 698.524989,472.757788 696.195256,460.978041 Z" id="Combined-Shape" fill="#FF0000" opacity="0.75"></path>
            <g id="Combined-Shape" transform="translate(700.000000, 25.000000)">
                <mask id="mask-4" fill="white">
                    <use xlink:href="#path-3"></use>
                </mask>
                <use id="Mask" fill="#EC7505" xlink:href="#path-3"></use>
                <path d="M60,138.75 L60,131.25 C60,129.178932 61.6789322,127.5 63.75,127.5 L105,127.5 C107.071068,127.5 108.75,125.821068 108.75,123.75 C108.75,121.678932 107.071068,120 105,120 L37.5,120 C35.4289322,120 33.75,118.321068 33.75,116.25 C33.75,114.178932 35.4289322,112.5 37.5,112.5 L93.75,112.5 C95.8210678,112.5 97.5,110.821068 97.5,108.75 C97.5,106.678932 95.8210678,105 93.75,105 L67.5,105 C65.4289322,105 63.75,103.321068 63.75,101.25 C63.75,99.1789322 65.4289322,97.5 67.5,97.5 L71.25,97.5 C73.3210678,97.5 75,95.8210678 75,93.75 C75,91.6789322 73.3210678,90 71.25,90 L37.5,90 C35.4289322,90 33.75,88.3210678 33.75,86.25 C33.75,84.1789322 35.4289322,82.5 37.5,82.5 L97.5,82.5 C99.5710678,82.5 101.25,80.8210678 101.25,78.75 C101.25,76.6789322 99.5710678,75 97.5,75 L82.5,75 C80.4289322,75 78.75,73.3210678 78.75,71.25 C78.75,69.1789322 77.0710678,67.5 75,67.5 L60,67.5 C57.9289322,67.5 56.25,65.8210678 56.25,63.75 C56.25,61.6789322 54.5710678,60 52.5,60 L33.75,60 C31.6789322,60 30,58.3210678 30,56.25 C30,54.1789322 31.6789322,52.5 33.75,52.5 L41.25,52.5 C43.3210678,52.5 45,50.8210678 45,48.75 C45,46.6789322 46.6789322,45 48.75,45 L78.75,45 C80.8210678,45 82.5,43.3210678 82.5,41.25 C82.5,39.1789322 84.1789322,37.5 86.25,37.5 L93.75,37.5 C95.8210678,37.5 97.5,35.8210678 97.5,33.75 C97.5,31.6789322 95.8210678,30 93.75,30 L48.75,30 C46.6789322,30 45,28.3210678 45,26.25 C45,24.1789322 46.6789322,22.5 48.75,22.5 L78.75,22.5 C80.8210678,22.5 82.5,20.8210678 82.5,18.75 C82.5,16.6789322 80.8210678,15 78.75,15 L48.75,15 C46.6789322,15 45,13.3210678 45,11.25 C45,9.17893219 46.6789322,7.5 48.75,7.5 L67.5,7.5 C69.5710678,7.5 71.25,5.82106781 71.25,3.75 C71.25,1.67893219 69.5710678,2.75931621e-14 67.5,2.79736121e-14 L-1.875,0 C-42.2608223,5.1943008e-15 -75,32.7391777 -75,73.125 L-75,75 C-75,116.421356 -41.4213562,150 -2.84217094e-14,150 L78.75,150 C80.8210678,150 82.5,148.321068 82.5,146.25 C82.5,144.178932 80.8210678,142.5 78.75,142.5 L63.75,142.5 C61.6789322,142.5 60,140.821068 60,138.75 Z" fill-opacity="0.75" fill="#FFFFFF" mask="url(#mask-4)"></path>
            </g>
        </g>
    </g>
</svg>
