<?xml version="1.0" encoding="UTF-8"?>
<svg viewBox="0 0 1000 1000" version="1.1" xmlns="http://www.w3.org/2000/svg" xmlns:xlink="http://www.w3.org/1999/xlink">
    <!-- Generator: Sketch 46.1 (44463) - http://www.bohemiancoding.com/sketch -->
    <title>Bassment!</title>
    <desc>Created with Sketch.</desc>
    <defs>
        <path d="M200,0 C310.45695,-2.02906125e-14 400,89.54305 400,200 C400,310.45695 310.45695,400 200,400 C89.54305,400 1.3527075e-14,310.45695 0,200 C-1.3527075e-14,89.54305 89.54305,2.02906125e-14 200,0 Z" id="path-1"></path>
    </defs>
    <g id="Planètes" stroke="none" stroke-width="1" fill="none" fill-rule="evenodd">
        <g id="Bassment!">
            <g id="Combined-Shape" transform="translate(300.000000, 300.000000)">
                <mask id="mask-2" fill="white">
                    <use xlink:href="#path-1"></use>
                </mask>
                <use id="Mask" fill="#00B2EB" xlink:href="#path-1"></use>
                <path d="M100,370 C100,364.477153 104.477153,360 110,360 L240,360 C245.522847,360 250,355.522847 250,350 C250,344.477153 254.477153,340 260,340 C265.522847,340 270,335.522847 270,330 C270,324.477153 265.522847,320 260,320 L90,320 C84.4771525,320 80,315.522847 80,310 C80,304.477153 84.4771525,300 90,300 L100,300 C105.522847,300 110,295.522847 110,290 C110,284.477153 114.477153,280 120,280 L190,280 C195.522847,280 200,275.522847 200,270 C200,264.477153 195.522847,260 190,260 L90,260 C84.4771525,260 80,255.522847 80,250 C80,244.477153 75.5228475,240 70,240 L50,240 C44.4771525,240 40,235.522847 40,230 C40,224.477153 44.4771525,220 50,220 L130,220 C135.522847,220 140,215.522847 140,210 C140,204.477153 144.477153,200 150,200 L300,200 C305.522847,200 310,195.522847 310,190 C310,184.477153 305.522847,180 300,180 L140,180 C134.477153,180 130,175.522847 130,170 C130,164.477153 134.477153,160 140,160 L240,160 C245.522847,160 250,155.522847 250,150 C250,144.477153 245.522847,140 240,140 L180,140 C174.477153,140 170,135.522847 170,130 C170,124.477153 165.522847,120 160,120 L100,120 C94.4771525,120 90,115.522847 90,110 C90,104.477153 94.4771525,100 100,100 L290,100 C295.522847,100 300,95.5228475 300,90 C300,84.4771525 295.522847,80 290,80 L260,80 C254.477153,80 250,75.5228475 250,70 C250,64.4771525 245.522847,60 240,60 L230,60 C224.477153,60 220,55.5228475 220,50 C220,44.4771525 215.522847,40 210,40 L190,40 C184.477153,40 180,35.5228475 180,30 C180,24.4771525 184.477153,20 190,20 L230,20 C235.522847,20 240,15.5228475 240,10 C240,4.4771525 235.522847,5.48806877e-15 230,6.5025974e-15 L-200,0 C-255.228475,2.37533246e-14 -300,44.771525 -300,100 L-300,300 C-300,355.228475 -255.228475,400 -200,400 L140,400 C145.522847,400 150,395.522847 150,390 C150,384.477153 145.522847,380 140,380 L110,380 C104.477153,380 100,375.522847 100,370 Z" fill="#FFFFFF" mask="url(#mask-2)"></path>
            </g>
        </g>
    </g>
</svg>
