<?xml version="1.0" encoding="UTF-8"?>
<svg viewBox="0 0 1000 1000" version="1.1" xmlns="http://www.w3.org/2000/svg" xmlns:xlink="http://www.w3.org/1999/xlink">
    <!-- Generator: Sketch 46.1 (44463) - http://www.bohemiancoding.com/sketch -->
    <title>Central Station</title>
    <desc>Created with Sketch.</desc>
    <defs>
        <path d="M200,0 C310.45695,-2.02906125e-14 400,89.54305 400,200 C400,310.45695 310.45695,400 200,400 C89.54305,400 1.3527075e-14,310.45695 0,200 C-1.3527075e-14,89.54305 89.54305,2.02906125e-14 200,0 Z" id="path-1"></path>
    </defs>
    <g id="Planètes" stroke="none" stroke-width="1" fill="none" fill-rule="evenodd">
        <g id="Central-Station">
            <g id="Combined-Shape" transform="translate(300.000000, 300.000000)">
                <mask id="mask-2" fill="white">
                    <use xlink:href="#path-1"></use>
                </mask>
                <use id="Mask" fill="#00FFCC" xlink:href="#path-1"></use>
                <path d="M100,370 C100,364.477153 95.5228475,360 90,360 L50,360 C44.4771525,360 40,355.522847 40,350 C40,344.477153 44.4771525,340 50,340 L320,340 C325.522847,340 330,335.522847 330,330 C330,324.477153 325.522847,320 320,320 L110,320 C104.477153,320 100,315.522847 100,310 C100,304.477153 104.477153,300 110,300 L160,300 C165.522847,300 170,295.522847 170,290 C170,284.477153 165.522847,280 160,280 L0,280 C-5.5228475,280 -10,275.522847 -10,270 C-10,264.477153 -5.5228475,260 0,260 L130,260 C135.522847,260 140,255.522847 140,250 C140,244.477153 135.522847,240 130,240 L70,240 C64.4771525,240 60,235.522847 60,230 C60,224.477153 64.4771525,220 70,220 L190,220 C195.522847,220 200,215.522847 200,210 C200,204.477153 195.522847,200 190,200 L140,200 C134.477153,200 130,195.522847 130,190 C130,184.477153 134.477153,180 140,180 L180,180 C185.522847,180 190,175.522847 190,170 C190,164.477153 185.522847,160 180,160 L80,160 C74.4771525,160 70,155.522847 70,150 C70,144.477153 74.4771525,140 80,140 L100,140 C105.522847,140 110,135.522847 110,130 C110,124.477153 105.522847,120 100,120 L80,120 C74.4771525,120 70,115.522847 70,110 C70,104.477153 74.4771525,100 80,100 L230,100 C235.522847,100 240,95.5228475 240,90 C240,84.4771525 235.522847,80 230,80 L200,80 C194.477153,80 190,75.5228475 190,70 C190,64.4771525 194.477153,60 200,60 L270,60 C275.522847,60 280,55.5228475 280,50 C280,44.4771525 275.522847,40 270,40 L130,40 C124.477153,40 120,35.5228475 120,30 C120,24.4771525 124.477153,20 130,20 L170,20 C175.522847,20 180,15.5228475 180,10 C180,4.4771525 175.522847,5.93816019e-14 170,6.03961325e-14 L-140,0 C-195.228475,2.25798041e-14 -240,44.771525 -240,100 L-240,300 C-240,355.228475 -195.228475,400 -140,400 L70,400 C75.5228475,400 80,395.522847 80,390 C80,384.477153 84.4771525,380 90,380 C95.5228475,380 100,375.522847 100,370 Z" fill="#E3EBFF" mask="url(#mask-2)"></path>
            </g>
            <path d="M395.121678,329.671732 C194.391369,347.886087 45,417.233001 45,500 C45,596.649831 248.710439,675 500,675 C751.289561,675 955,596.649831 955,500 C955,417.233001 805.608631,347.886087 604.878322,329.671732 C645.497768,354.736127 676.476328,393.924277 690.965181,440.387358 C735.011229,455.958289 762,476.930559 762,500 C762,548.048773 644.922462,587 500.5,587 C356.077538,587 239,548.048773 239,500 C239,477.12749 265.529962,456.316498 308.910566,440.787297 C323.346062,394.149171 354.385738,354.80801 395.121678,329.671732 Z" id="Combined-Shape" fill-opacity="0.75" fill="#000000"></path>
        </g>
    </g>
</svg>
