<?xml version="1.0" encoding="UTF-8"?>
<svg viewBox="0 0 1000 1000" version="1.1" xmlns="http://www.w3.org/2000/svg" xmlns:xlink="http://www.w3.org/1999/xlink">
    <!-- Generator: Sketch 46.1 (44463) - http://www.bohemiancoding.com/sketch -->
    <title>Duplex/Walden</title>
    <desc>Created with Sketch.</desc>
    <defs>
        <path d="M200,0 C310.45695,-2.02906125e-14 400,89.54305 400,200 C400,310.45695 310.45695,400 200,400 C89.54305,400 1.3527075e-14,310.45695 0,200 C-1.3527075e-14,89.54305 89.54305,2.02906125e-14 200,0 Z" id="path-1"></path>
        <linearGradient x1="50%" y1="0%" x2="50%" y2="100%" id="linearGradient-3">
            <stop stop-color="#FFD89B" offset="0%"></stop>
            <stop stop-color="#19547B" offset="100%"></stop>
        </linearGradient>
    </defs>
    <g id="Planètes" stroke="none" stroke-width="1" fill="none" fill-rule="evenodd">
        <g id="Duplex/Walden">
            <g id="Combined-Shape" transform="translate(100.000000, 100.000000)">
                <mask id="mask-2" fill="white">
                    <use xlink:href="#path-1"></use>
                </mask>
                <use id="Mask" fill="#645DD7" xlink:href="#path-1"></use>
                <path d="M250,370 C250,375.522847 245.522847,380 240,380 L110,380 C104.477153,380 100,384.477153 100,390 C100,395.522847 95.5228475,400 90,400 L-40,400 C-95.228475,400 -140,355.228475 -140,300 L-140,100 C-140,44.771525 -95.228475,6.52123683e-14 -40,5.5067062e-14 L220,0 C225.522847,2.84171132e-14 230,4.4771525 230,10 L230,15 C230,17.7614237 227.761424,20 225,20 C222.238576,20 220,22.2385763 220,25 L220,30 C220,35.5228475 224.477153,40 230,40 L270,40 C275.522847,40 280,44.4771525 280,50 C280,55.5228475 275.522847,60 270,60 L110,60 C104.477153,60 100,64.4771525 100,70 C100,75.5228475 104.477153,80 110,80 L230,80 C235.522847,80 240,84.4771525 240,90 C240,95.5228475 235.522847,100 230,100 L150,100 C144.477153,100 140,104.477153 140,110 C140,115.522847 135.522847,120 130,120 L110,120 C104.477153,120 100,124.477153 100,130 L100,135 C100,137.761424 97.7614237,140 95,140 C92.2385763,140 90,142.238576 90,145 L90,150 C90,155.522847 94.4771525,160 100,160 L210,160 C215.522847,160 220,164.477153 220,170 C220,175.522847 224.477153,180 230,180 L250,180 C255.522847,180 260,184.477153 260,190 C260,195.522847 264.477153,200 270,200 L300,200 C305.522847,200 310,204.477153 310,210 C310,215.522847 305.522847,220 300,220 L100,220 C94.4771525,220 90,224.477153 90,230 C90,235.522847 94.4771525,240 100,240 L230,240 C235.522847,240 240,244.477153 240,250 C240,255.522847 235.522847,260 230,260 L160,260 C154.477153,260 150,264.477153 150,270 C150,275.522847 154.477153,280 160,280 L260,280 C265.522847,280 270,284.477153 270,290 C270,295.522847 265.522847,300 260,300 C254.477153,300 250,304.477153 250,310 C250,315.522847 254.477153,320 260,320 L320,320 C325.522847,320 330,324.477153 330,330 C330,335.522847 325.522847,340 320,340 L100,340 C94.4771525,340 90,344.477153 90,350 C90,355.522847 94.4771525,360 100,360 L240,360 C245.522847,360 250,364.477153 250,370 Z" fill="#FF4242" mask="url(#mask-2)"></path>
            </g>
            <path d="M700,500 C810.45695,500 900,589.54305 900,700 C900,810.45695 810.45695,900 700,900 C589.54305,900 500,810.45695 500,700 C500,589.54305 589.54305,500 700,500 Z" id="Mask" fill="url(#linearGradient-3)"></path>
        </g>
    </g>
</svg>
