<?xml version="1.0" encoding="UTF-8"?>
<svg viewBox="0 0 1000 1000" version="1.1" xmlns="http://www.w3.org/2000/svg" xmlns:xlink="http://www.w3.org/1999/xlink">
    <defs>
        <path d="M200,0 C310.45695,-2.02906125e-14 400,89.54305 400,200 C400,310.45695 310.45695,400 200,400 C89.54305,400 1.3527075e-14,310.45695 0,200 C-1.3527075e-14,89.54305 89.54305,2.02906125e-14 200,0 Z" id="galerie-path-1"></path>
    </defs>
    <g id="Planètes" stroke="none" stroke-width="1" fill="none" fill-rule="evenodd">
        <g id="Galerie">
            <g id="Planètes/Galerie">
                <rect id="Rectangle" x="0" y="0" width="1000" height="1000"></rect>
                <g id="Combined-Shape" stroke-width="1" fill-rule="evenodd" transform="translate(500.000000, 500.000000) rotate(-330.000000) translate(-500.000000, -500.000000) translate(300.000000, 300.000000)">
                    <mask id="mask-2" fill="white">
                        <use xlink:href="#galerie-path-1"></use>
                    </mask>
                    <use id="Mask" fill="#8377D1" xlink:href="#galerie-path-1"></use>
                    <path d="M120,355 C120,346.715729 126.715729,340 135,340 L240,340 C245.522847,340 250,335.522847 250,330 C250,324.477153 245.522847,320 240,320 L95,320 C86.7157288,320 80,313.284271 80,305 C80,296.715729 86.7157288,290 95,290 L115,290 C123.284271,290 130,283.284271 130,275 C130,266.715729 136.715729,260 145,260 L300,260 C305.522847,260 310,255.522847 310,250 C310,244.477153 305.522847,240 300,240 L90,240 C84.4771525,240 80,235.522847 80,230 C80,224.477153 84.4771525,220 90,220 L220,220 C225.522847,220 230,215.522847 230,210 C230,204.477153 225.522847,200 220,200 L180,200 C174.477153,200 170,195.522847 170,190 C170,184.477153 174.477153,180 180,180 L290,180 C295.522847,180 300,175.522847 300,170 C300,164.477153 295.522847,160 290,160 L85,160 C76.7157288,160 70,153.284271 70,145 C70,136.675599 76.6746723,129.888755 84.9979171,129.750035 L116.001944,129.233301 C123.770306,129.103828 130,122.769441 130,115 C130,107.242979 136.242594,100.930638 143.999136,100.844454 L210.000617,100.111104 C215.541004,100.049544 220,95.5407291 220,90 C220,84.4771525 215.522847,80 210,80 L140,80 C134.477153,80 130,75.5228475 130,70 C130,64.4771525 134.477153,60 140,60 C145.522847,60 150,55.5228475 150,50 C150,44.4771525 145.522847,40 140,40 L120,40 C114.477153,40 110,35.5228475 110,30 L110,25 C110,22.2385763 112.238576,20 115,20 C117.761424,20 120,17.7614237 120,15 L120,10 C120,4.4771525 115.522847,5.93816019e-14 110,6.03961325e-14 L-140,0 C-195.228475,1.01453063e-14 -240,44.771525 -240,100 L-240,300 C-240,355.228475 -195.228475,400 -140,400 L165,400 C173.284271,400 180,393.284271 180,385 C180,376.715729 173.284271,370 165,370 L135,370 C126.715729,370 120,363.284271 120,355 Z" stroke="#000000" stroke-width="10" fill="#93BEDF" mask="url(#mask-2)"></path>
                    <path d="M200,1.98951966e-13 C310.45695,1.78661353e-13 400,89.54305 400,200 C400,310.45695 310.45695,400 200,400 C89.54305,400 5.61596392e-14,310.45695 4.26325641e-14,200 C2.91054891e-14,89.54305 89.54305,2.19242579e-13 200,1.98951966e-13 Z" id="Mask" stroke="#000000" stroke-width="10"></path>
                </g>
                <path d="M400.926097,564 L294,564 C282.954305,564 274,572.954305 274,584 C274,595.045695 282.954305,604 294,604 L764,604 C775.045695,604 784,595.045695 784,584 C784,572.954305 775.045695,564 764,564 L744,564 C732.954305,564 724,555.045695 724,544 C724,532.954305 715.045695,524 704,524 L695.717752,524 C671.130632,552.914889 594.60059,574 504,574 C466.295197,574 431.02732,570.348198 400.926097,564 Z M306.025396,514 L189,514 C175.192881,514 164,502.807119 164,489 C164,475.192881 175.192881,464 189,464 L308.000725,464 C305.37721,476.924398 304,490.301366 304,504 C304,507.395213 304.690627,510.73397 306.025396,514 Z M316.633499,433.889456 C303.936271,432.697254 294,422.008997 294,409 C294,395.192881 305.192881,384 319,384 L343.985353,384 C332.633832,399.112608 323.373364,415.88561 316.6335,433.889453 Z M664.014647,384 L834,384 C845.045695,384 854,392.954305 854,404 C854,415.045695 845.045695,424 834,424 L819,424 C810.715729,424 804,430.715729 804,439 C804,447.284271 810.715729,454 819,454 L834,454 C845.045695,454 854,462.954305 854,474 C854,485.045695 845.045695,494 834,494 L703.75435,494 C701.727166,452.83192 687.252284,414.936938 664.014647,384 Z" id="Combined-Shape" stroke="#000000" stroke-width="10" fill-opacity="0.5" fill="#FF0000" fill-rule="evenodd" transform="translate(509.000000, 494.000000) rotate(-330.000000) translate(-509.000000, -494.000000) "></path>
            </g>
        </g>
    </g>
</svg>
