<?xml version="1.0" encoding="UTF-8"?>
<svg viewBox="0 0 1000 1000" version="1.1" xmlns="http://www.w3.org/2000/svg" xmlns:xlink="http://www.w3.org/1999/xlink">
    <!-- Generator: Sketch 46.1 (44463) - http://www.bohemiancoding.com/sketch -->
    <title>Saltimbanque</title>
    <desc>Created with Sketch.</desc>
    <defs>
        <path d="M200,0 C310.45695,-2.02906125e-14 400,89.54305 400,200 C400,310.45695 310.45695,400 200,400 C89.54305,400 1.3527075e-14,310.45695 0,200 C-1.3527075e-14,89.54305 89.54305,2.02906125e-14 200,0 Z" id="path-1"></path>
        <linearGradient x1="50%" y1="-9.58175287%" x2="50%" y2="100%" id="linearGradient-3">
            <stop stop-color="#FF7BC7" offset="0%"></stop>
            <stop stop-color="#85689F" offset="51.5306122%"></stop>
            <stop stop-color="#6CA0C4" offset="100%"></stop>
        </linearGradient>
    </defs>
    <g id="Planètes" stroke="none" stroke-width="1" fill="none" fill-rule="evenodd">
        <g id="Saltimbanque">
            <g id="Combined-Shape" transform="translate(300.000000, 300.000000)">
                <mask id="mask-2" fill="white">
                    <use xlink:href="#path-1"></use>
                </mask>
                <use id="Mask" fill="#24FE41" xlink:href="#path-1"></use>
                <path d="M230,370 C230,375.522847 225.522847,380 220,380 L200,380 C194.477153,380 190,384.477153 190,390 C190,395.522847 185.522847,400 180,400 L-140,400 C-195.228475,400 -240,355.228475 -240,300 L-240,100 C-240,44.771525 -195.228475,1.36266642e-13 -140,1.26121336e-13 L140,0 C145.522847,6.27540309e-14 150,4.4771525 150,10 C150,15.5228475 154.477153,20 160,20 L320,20 C325.522847,20 330,24.4771525 330,30 C330,35.5228475 325.522847,40 320,40 L240,40 C234.477153,40 230,44.4771525 230,50 C230,55.5228475 225.522847,60 220,60 L170,60 C164.477153,60 160,64.4771525 160,70 C160,75.5228475 164.477153,80 170,80 L180,80 C185.522847,80 190,84.4771525 190,90 C190,95.5228475 194.477153,100 200,100 L250,100 C255.522847,100 260,104.477153 260,110 C260,115.522847 264.477153,120 270,120 L310,120 C315.522847,120 320,124.477153 320,130 C320,135.522847 315.522847,140 310,140 L270,140 C264.477153,140 260,144.477153 260,150 C260,155.522847 255.522847,160 250,160 L140,160 C134.477153,160 130,164.477153 130,170 C130,175.522847 134.477153,180 140,180 L300,180 C305.522847,180 310,184.477153 310,190 C310,195.522847 305.522847,200 300,200 L150,200 C144.477153,200 140,204.477153 140,210 C140,215.522847 144.477153,220 150,220 L210,220 C215.522847,220 220,224.477153 220,230 C220,235.522847 215.522847,240 210,240 L120,240 C114.477153,240 110,244.477153 110,250 C110,255.522847 105.522847,260 100,260 L90,260 C84.4771525,260 80,264.477153 80,270 C80,275.522847 84.4771525,280 90,280 L100,280 C105.522847,280 110,284.477153 110,290 C110,295.522847 114.477153,300 120,300 L190,300 C195.522847,300 200,304.477153 200,310 C200,315.522847 204.477153,320 210,320 C215.522847,320 220,324.477153 220,330 C220,335.522847 215.522847,340 210,340 L150,340 C144.477153,340 140,344.477153 140,350 C140,355.522847 144.477153,360 150,360 L220,360 C225.522847,360 230,364.477153 230,370 Z" fill="#00A1E4" mask="url(#mask-2)"></path>
            </g>
            <g id="Group-2" transform="translate(225.350288, 238.350288) rotate(-315.000000) translate(-225.350288, -238.350288) translate(188.850288, 84.850288)">
                <path d="M34.1910593,69.9958275 L37,66 L39.8089407,69.9958275 L39.8089407,69.9958275 C51.6472487,86.8362813 58,106.919831 58,127.504933 L58,260.284858 L58,260.284858 C58,262.604454 56.1195959,264.484858 53.8,264.484858 L53.8,264.484858 L53.8,264.484858 C51.4804041,264.484858 49.6,262.604454 49.6,260.284858 L49.6,238.770862 L49.6,238.770862 C49.6,236.451266 47.7195959,234.570862 45.4,234.570862 L45.4,234.570862 L45.4,234.570862 C43.0804041,234.570862 41.2,236.451266 41.2,238.770862 L41.2,302.8 L41.2,302.8 C41.2,305.119596 39.3195959,307 37,307 L37,307 L37,307 C34.6804041,307 32.8,305.119596 32.8,302.8 L32.8,245.172287 L32.8,245.172287 C32.8,242.852691 30.9195959,240.972287 28.6,240.972287 L28.6,240.972287 L28.6,240.972287 C26.2804041,240.972287 24.4,242.852691 24.4,245.172287 L24.4,251.708946 L24.4,251.708946 C24.4,254.028542 22.5195959,255.908946 20.2,255.908946 L20.2,255.908946 L20.2,255.908946 C17.8804041,255.908946 16,254.028542 16,251.708946 L16,127.504933 L16,127.504933 C16,106.919831 22.3527513,86.8362813 34.1910593,69.9958275 Z M20.2,262.310371 L20.2,262.310371 L20.2,262.310371 C22.5195959,262.310371 24.4,264.190775 24.4,266.510371 L24.4,283.716071 L24.4,283.716071 C24.4,286.035667 22.5195959,287.916071 20.2,287.916071 L20.2,287.916071 L20.2,287.916071 C17.8804041,287.916071 16,286.035667 16,283.716071 L16,266.510371 L16,266.510371 C16,264.190775 17.8804041,262.310371 20.2,262.310371 Z M53.8,270.845604 L53.8,270.845604 L53.8,270.845604 C56.1195959,270.845604 58,272.726008 58,275.045604 L58,275.180838 L58,275.180838 C58,277.500434 56.1195959,279.380838 53.8,279.380838 L53.8,279.380838 L53.8,279.380838 C51.4804041,279.380838 49.6,277.500434 49.6,275.180838 L49.6,275.045604 L49.6,275.045604 C49.6,272.726008 51.4804041,270.845604 53.8,270.845604 Z" id="Combined-Shape" fill="#DC0073"></path>
                <path d="M36.5,148.938471 L36.5,148.938471 L36.5,148.938471 C34.1988135,148.938471 32.3333333,150.803951 32.3333333,153.105138 L32.3333333,200.54091 L32.3333333,200.54091 C32.3333333,202.842097 30.4678531,204.707577 28.1666667,204.707577 L28.1666667,204.707577 L28.1666667,204.707577 C25.8654802,204.707577 24,202.842097 24,200.54091 L24,135.480915 L24,135.480915 C24,128.481671 24.7348357,121.501767 26.1924239,114.655976 L34.5438485,75.4322067 L34.5438485,75.4322067 C34.7738744,74.3518541 35.8361461,73.6625281 36.9164988,73.892554 C37.6885937,74.0569464 38.2917591,74.6601118 38.4561515,75.4322067 L46.8075761,114.655976 L46.8075761,114.655976 C48.2651643,121.501767 49,128.481671 49,135.480915 L49,160.663641 L49,160.663641 C49,162.964827 47.1345198,164.830307 44.8333333,164.830307 L44.8333333,164.830307 L44.8333333,164.830307 C42.5321469,164.830307 40.6666667,162.964827 40.6666667,160.663641 L40.6666667,153.105138 L40.6666667,153.105138 C40.6666667,150.803951 38.8011865,148.938471 36.5,148.938471 Z M44.8333333,169.261115 L44.8333333,169.261115 L44.8333333,169.261115 C47.1345198,169.261115 49,171.126595 49,173.427782 L49,173.956064 L49,173.956064 C49,176.25725 47.1345198,178.122731 44.8333333,178.122731 L44.8333333,178.122731 L44.8333333,178.122731 C42.5321469,178.122731 40.6666667,176.25725 40.6666667,173.956064 L40.6666667,173.427782 L40.6666667,173.427782 C40.6666667,171.126595 42.5321469,169.261115 44.8333333,169.261115 Z M44.8333333,194.014567 L44.8333333,194.014567 L44.8333333,194.014567 C47.1345198,194.014567 49,195.880047 49,198.181234 L49,213.833333 L49,213.833333 C49,216.13452 47.1345198,218 44.8333333,218 L44.8333333,218 L44.8333333,218 C42.5321469,218 40.6666667,216.13452 40.6666667,213.833333 L40.6666667,198.181234 L40.6666667,198.181234 C40.6666667,195.880047 42.5321469,194.014567 44.8333333,194.014567 Z" id="Combined-Shape" fill="#FFFFFF"></path>
                <path d="M36.4999753,0 L36.4999753,0 L36.4999753,0 C37.9183232,3.5186917e-15 39.1466699,0.984402156 39.4556461,2.36868697 L51.9970318,58.5569921 L51.9970318,58.5569921 C52.1353639,59.1767518 52.4192621,59.7546717 52.8252444,60.2429506 L67.9575077,78.4426721 L67.9575077,78.4426721 C69.3698809,80.1413472 69.1377874,82.6633501 67.4391123,84.0757233 C66.7207604,84.6730012 65.8160062,85 64.8817844,85 L8.1181663,85 L8.1181663,85 C5.9090273,85 4.1181663,83.209139 4.1181663,81 C4.1181663,80.0657782 4.44516511,79.161024 5.04244296,78.4426721 L20.1747063,60.2429506 L20.1747063,60.2429506 C20.5806886,59.7546717 20.8645868,59.1767518 21.0029189,58.5569921 L33.5443046,2.36868697 L33.5443046,2.36868697 C33.8532808,0.984402156 35.0816275,-3.5186917e-15 36.4999753,0 Z" id="Path-4" fill="url(#linearGradient-3)"></path>
            </g>
        </g>
    </g>
</svg>
