<?xml version="1.0" encoding="UTF-8"?>
<svg viewBox="0 0 1000 1000" version="1.1" xmlns="http://www.w3.org/2000/svg" xmlns:xlink="http://www.w3.org/1999/xlink">
    <defs>
        <linearGradient x1="50%" y1="0%" x2="50%" y2="100%" id="space-ginguette-linearGradient-1">
            <stop stop-color="#FA8BFF" offset="0%"></stop>
            <stop stop-color="#2CD1FF" offset="52.0408163%"></stop>
            <stop stop-color="#2CFF88" offset="100%"></stop>
        </linearGradient>
        <path d="M500,300 C610.45695,300 700,389.54305 700,500 C700,610.45695 610.45695,700 500,700 C389.54305,700 300,610.45695 300,500 C300,389.54305 389.54305,300 500,300 Z" id="space-ginguette-path-2"></path>
        <path d="M595,70 C636.421356,70 670,103.578644 670,145 C670,186.421356 636.421356,220 595,220 C553.578644,220 520,186.421356 520,145 C520,103.578644 553.578644,70 595,70 Z" id="space-ginguette-path-3"></path>
        <linearGradient x1="100%" y1="0%" x2="0%" y2="100%" id="space-ginguette-linearGradient-5">
            <stop stop-color="#FA8BFF" offset="0%"></stop>
            <stop stop-color="#2CD1FF" offset="52.0408163%"></stop>
            <stop stop-color="#2CFF88" offset="100%"></stop>
        </linearGradient>
        <path d="M75,0 C116.421356,-7.6089797e-15 150,33.5786438 150,75 C150,116.421356 116.421356,150 75,150 C33.5786438,150 5.07265313e-15,116.421356 0,75 C-5.07265313e-15,33.5786438 33.5786438,7.6089797e-15 75,0 Z" id="space-ginguette-path-6"></path>
    </defs>
    <g id="Planètes" stroke="none" stroke-width="1" fill="none" fill-rule="evenodd">
        <g id="Space-Ginguette">
            <g id="Planètes/Space-Ginguette">
                <g id="space-ginguette-Mask">
                    <use fill="url(#space-ginguette-linearGradient-1)" fill-rule="evenodd" xlink:href="#space-ginguette-path-2"></use>
                    <path stroke="#000000" stroke-width="10" d="M500,295 C613.218374,295 705,386.781626 705,500 C705,613.218374 613.218374,705 500,705 C386.781626,705 295,613.218374 295,500 C295,386.781626 386.781626,295 500,295 Z"></path>
                </g>
                <mask id="space-ginguette-mask-4" fill="white">
                    <use xlink:href="#space-ginguette-path-3"></use>
                </mask>
                <g id="space-ginguette-Mask">
                    <use fill="#E3EBFF" fill-rule="evenodd" xlink:href="#space-ginguette-path-3"></use>
                    <path stroke="#000000" stroke-width="5" d="M595,67.5 C637.802068,67.5 672.5,102.197932 672.5,145 C672.5,187.802068 637.802068,222.5 595,222.5 C552.197932,222.5 517.5,187.802068 517.5,145 C517.5,102.197932 552.197932,67.5 595,67.5 Z"></path>
                </g>
                <g id="Combined-Shape" stroke-width="1" fill-rule="evenodd" transform="translate(90.000000, 700.000000)">
                    <mask id="space-ginguette-mask-7" fill="white">
                        <use xlink:href="#space-ginguette-path-6"></use>
                    </mask>
                    <use id="space-ginguette-Mask" fill="url(#space-ginguette-linearGradient-5)" xlink:href="#space-ginguette-path-6"></use>
                    <path d="M60,138.75 C60,140.821068 61.6789322,142.5 63.75,142.5 L78.75,142.5 C80.8210678,142.5 82.5,144.178932 82.5,146.25 C82.5,148.321068 80.8210678,150 78.75,150 L-2.84217094e-14,150 C-41.4213562,150 -75,116.421356 -75,75 L-75,73.125 C-75,32.7391777 -42.2608223,7.41875501e-15 -1.875,0 L67.5,3.01980663e-14 C69.5710678,2.98176163e-14 71.25,1.67893219 71.25,3.75 C71.25,5.82106781 69.5710678,7.5 67.5,7.5 L48.75,7.5 C46.6789322,7.5 45,9.17893219 45,11.25 C45,13.3210678 46.6789322,15 48.75,15 L78.75,15 C80.8210678,15 82.5,16.6789322 82.5,18.75 C82.5,20.8210678 80.8210678,22.5 78.75,22.5 L48.75,22.5 C46.6789322,22.5 45,24.1789322 45,26.25 C45,28.3210678 46.6789322,30 48.75,30 L93.75,30 C95.8210678,30 97.5,31.6789322 97.5,33.75 C97.5,35.8210678 95.8210678,37.5 93.75,37.5 L86.25,37.5 C84.1789322,37.5 82.5,39.1789322 82.5,41.25 C82.5,43.3210678 80.8210678,45 78.75,45 L48.75,45 C46.6789322,45 45,46.6789322 45,48.75 C45,50.8210678 43.3210678,52.5 41.25,52.5 L33.75,52.5 C31.6789322,52.5 30,54.1789322 30,56.25 C30,58.3210678 31.6789322,60 33.75,60 L52.5,60 C54.5710678,60 56.25,61.6789322 56.25,63.75 C56.25,65.8210678 57.9289322,67.5 60,67.5 L75,67.5 C77.0710678,67.5 78.75,69.1789322 78.75,71.25 C78.75,73.3210678 80.4289322,75 82.5,75 L97.5,75 C99.5710678,75 101.25,76.6789322 101.25,78.75 C101.25,80.8210678 99.5710678,82.5 97.5,82.5 L37.5,82.5 C35.4289322,82.5 33.75,84.1789322 33.75,86.25 C33.75,88.3210678 35.4289322,90 37.5,90 L71.25,90 C73.3210678,90 75,91.6789322 75,93.75 C75,95.8210678 73.3210678,97.5 71.25,97.5 L67.5,97.5 C65.4289322,97.5 63.75,99.1789322 63.75,101.25 C63.75,103.321068 65.4289322,105 67.5,105 L93.75,105 C95.8210678,105 97.5,106.678932 97.5,108.75 C97.5,110.821068 95.8210678,112.5 93.75,112.5 L37.5,112.5 C35.4289322,112.5 33.75,114.178932 33.75,116.25 C33.75,118.321068 35.4289322,120 37.5,120 L105,120 C107.071068,120 108.75,121.678932 108.75,123.75 C108.75,125.821068 107.071068,127.5 105,127.5 L63.75,127.5 C61.6789322,127.5 60,129.178932 60,131.25 L60,138.75 Z" stroke="#000000" stroke-width="5" fill="#E3EBFF" mask="url(#space-ginguette-mask-7)"></path>
                    <path d="M75,-2.5 C117.802068,-2.5 152.5,32.1979319 152.5,75 C152.5,117.802068 117.802068,152.5 75,152.5 C32.1979319,152.5 -2.5,117.802068 -2.5,75 C-2.5,32.1979319 32.1979319,-2.5 75,-2.5 Z" id="space-ginguette-Mask" stroke="#000000" stroke-width="5"></path>
                </g>
            </g>
        </g>
    </g>
</svg>
