<?xml version="1.0" encoding="UTF-8"?>
<svg width="1000px" height="1000px" viewBox="0 0 1000 1000" version="1.1" xmlns="http://www.w3.org/2000/svg" xmlns:xlink="http://www.w3.org/1999/xlink">
    <!-- Generator: Sketch 46.1 (44463) - http://www.bohemiancoding.com/sketch -->
    <title>10Bis</title>
    <desc>Created with Sketch.</desc>
    <defs>
        <path d="M200,0 C310.45695,-2.02906125e-14 400,89.54305 400,200 C400,310.45695 310.45695,400 200,400 C89.54305,400 1.3527075e-14,310.45695 0,200 C-1.3527075e-14,89.54305 89.54305,2.02906125e-14 200,0 Z" id="path-1"></path>
    </defs>
    <g id="Planètes" stroke="none" stroke-width="1" fill="none" fill-rule="evenodd">
        <g id="10Bis">
            <g id="Combined-Shape" transform="translate(300.000000, 300.000000)">
                <mask id="mask-2" fill="white">
                    <use xlink:href="#path-1"></use>
                </mask>
                <use id="Mask" fill="#993955" xlink:href="#path-1"></use>
                <path d="M140,370 C140,375.522847 135.522847,380 130,380 C124.477153,380 120,384.477153 120,390 C120,395.522847 115.522847,400 110,400 L-100,400 C-155.228475,400 -200,355.228475 -200,300 L-200,100 C-200,44.771525 -155.228475,1.01453063e-14 -100,0 L210,6.92779167e-14 C215.522847,6.82633861e-14 220,4.4771525 220,10 C220,15.5228475 215.522847,20 210,20 L170,20 C164.477153,20 160,24.4771525 160,30 C160,35.5228475 164.477153,40 170,40 L290,40 C295.522847,40 300,44.4771525 300,50 C300,55.5228475 295.522847,60 290,60 L130,60 C124.477153,60 120,64.4771525 120,70 C120,75.5228475 124.477153,80 130,80 L250,80 C255.522847,80 260,84.4771525 260,90 C260,95.5228475 255.522847,100 250,100 L60,100 C54.4771525,100 50,104.477153 50,110 C50,115.522847 54.4771525,120 60,120 L110,120 C115.522847,120 120,124.477153 120,130 C120,135.522847 115.522847,140 110,140 L90,140 C84.4771525,140 80,144.477153 80,150 C80,155.522847 84.4771525,160 90,160 L230,160 C235.522847,160 240,164.477153 240,170 C240,175.522847 235.522847,180 230,180 L210,180 C204.477153,180 200,184.477153 200,190 C200,195.522847 204.477153,200 210,200 L290,200 C295.522847,200 300,204.477153 300,210 C300,215.522847 295.522847,220 290,220 L90,220 C84.4771525,220 80,224.477153 80,230 C80,235.522847 84.4771525,240 90,240 L170,240 C175.522847,240 180,244.477153 180,250 C180,255.522847 175.522847,260 170,260 L70,260 C64.4771525,260 60,264.477153 60,270 C60,275.522847 64.4771525,280 70,280 L250,280 C255.522847,280 260,284.477153 260,290 C260,295.522847 255.522847,300 250,300 L150,300 C144.477153,300 140,304.477153 140,310 C140,315.522847 144.477153,320 150,320 L310,320 C315.522847,320 320,324.477153 320,330 C320,335.522847 315.522847,340 310,340 L90,340 C84.4771525,340 80,344.477153 80,350 C80,355.522847 84.4771525,360 90,360 L130,360 C135.522847,360 140,364.477153 140,370 L140,370 Z" fill="#C589E8" mask="url(#mask-2)"></path>
            </g>
        </g>
    </g>
</svg>