<?xml version="1.0" encoding="UTF-8"?>
<svg width="1200px" height="1200px" viewBox="0 0 1200 1200" version="1.1" xmlns="http://www.w3.org/2000/svg" xmlns:xlink="http://www.w3.org/1999/xlink">
    <!-- Generator: Sketch 46 (44423) - http://www.bohemiancoding.com/sketch -->
    <title>ACAB</title>
    <desc>Created with Sketch.</desc>
    <defs>
        <rect id="path-1" x="0" y="0" width="400" height="400"></rect>
        <rect id="path-3" x="0" y="0" width="150" height="150"></rect>
    </defs>
    <g id="Planètes" stroke="none" stroke-width="1" fill="none" fill-rule="evenodd">
        <g id="ACAB">
            <g id="Combined-Shape" transform="translate(400.000000, 400.000000)">
                <mask id="mask-2" fill="white">
                    <use xlink:href="#path-1"></use>
                </mask>
                <use id="Mask" fill="#4392F1" xlink:href="#path-1"></use>
                <path d="M160,370 L160,360 L160,350 L160,350 C160,344.477153 164.477153,340 170,340 L280,340 L280,340 C285.522847,340 290,335.522847 290,330 L290,330 L290,330 C290,324.477153 285.522847,320 280,320 L100,320 L100,320 C94.4771525,320 90,315.522847 90,310 L90,310 L90,310 C90,304.477153 94.4771525,300 100,300 L250,300 L250,300 C255.522847,300 260,295.522847 260,290 L260,290 L260,290 C260,284.477153 255.522847,280 250,280 L180,280 L180,280 C174.477153,280 170,275.522847 170,270 L170,270 L170,270 C170,264.477153 174.477153,260 180,260 L190,260 L190,260 C195.522847,260 200,255.522847 200,250 L200,250 L200,250 C200,244.477153 195.522847,240 190,240 L100,240 L100,240 C94.4771525,240 90,235.522847 90,230 L90,230 L90,230 C90,224.477153 94.4771525,220 100,220 L260,220 L260,220 C265.522847,220 270,215.522847 270,210 L270,210 L270,210 C270,204.477153 265.522847,200 260,200 L220,200 L220,200 C214.477153,200 210,195.522847 210,190 L210,190 L210,190 C210,184.477153 205.522847,180 200,180 L160,180 L160,180 C154.477153,180 150,175.522847 150,170 L150,170 L150,170 C150,164.477153 145.522847,160 140,160 L90,160 L90,160 C84.4771525,160 80,155.522847 80,150 L80,150 L80,150 C80,144.477153 84.4771525,140 90,140 L110,140 L110,140 C115.522847,140 120,135.522847 120,130 L120,130 L120,130 C120,124.477153 124.477153,120 130,120 L210,120 L210,120 C215.522847,120 220,115.522847 220,110 L220,110 L220,110 C220,104.477153 224.477153,100 230,100 L250,100 L250,100 C255.522847,100 260,95.5228475 260,90 L260,90 L260,90 C260,84.4771525 255.522847,80 250,80 L130,80 L130,80 C124.477153,80 120,75.5228475 120,70 L120,70 L120,70 C120,64.4771525 124.477153,60 130,60 L210,60 L210,60 C215.522847,60 220,55.5228475 220,50 L220,50 L220,50 C220,44.4771525 215.522847,40 210,40 L130,40 L130,40 C124.477153,40 120,35.5228475 120,30 L120,30 L120,30 C120,24.4771525 124.477153,20 130,20 L180,20 L180,20 C185.522847,20 190,15.5228475 190,10 L190,10 L190,10 C190,4.4771525 185.522847,6.64870313e-14 180,6.75015599e-14 L-100,5.93190048e-15 L-100,1.42108547e-14 C-155.228475,2.43561546e-14 -200,44.771525 -200,100 L-200,300 L-200,300 C-200,355.228475 -155.228475,400 -100,400 L210,400 L210,400 C215.522847,400 220,395.522847 220,390 L220,390 L220,390 C220,384.477153 215.522847,380 210,380 L170,380 L170,380 C164.477153,380 160,375.522847 160,370 Z" fill="#E3EBFF" mask="url(#mask-2)"></path>
            </g>
            <g id="Combined-Shape" transform="translate(0.000000, 200.000000)" fill="#FF0000" opacity="0.5">
                <path d="M950,460 L970,460 L970,460 C981.045695,460 990,451.045695 990,440 L990,440 L990,440 C990,428.954305 981.045695,420 970,420 L680,420 L680,420 C674.477153,420 670,415.522847 670,410 L670,410 L670,410 C670,404.477153 674.477153,400 680,400 L790,400 L790,400 C801.045695,400 810,391.045695 810,380 L810,380 L810,380 C810,368.954305 801.045695,360 790,360 L740,360 L740,360 C734.477153,360 730,355.522847 730,350 L730,350 L730,350 C730,344.477153 734.477153,340 740,340 L930,340 L930,340 C941.045695,340 950,331.045695 950,320 L950,320 L950,320 C950,308.954305 941.045695,300 930,300 L230,300 L230,300 C218.954305,300 210,308.954305 210,320 L210,320 L210,320 C210,331.045695 218.954305,340 230,340 L300,340 L300,340 C305.522847,340 310,344.477153 310,350 L310,350 L310,350 C310,355.522847 305.522847,360 300,360 L230,360 L230,360 C218.954305,360 210,368.954305 210,380 L210,380 L210,380 C210,391.045695 218.954305,400 230,400 L400,400 L400,400 C405.522847,400 410,404.477153 410,410 L410,410 L410,410 C410,415.522847 405.522847,420 400,420 L330,420 L330,420 C318.954305,420 310,428.954305 310,440 L310,440 L310,440 C310,451.045695 318.954305,460 330,460 L350,460 L350,460 C361.045695,460 370,468.954305 370,480 L370,480 L370,480 C370,491.045695 378.954305,500 390,500 L910,500 L910,500 C921.045695,500 930,491.045695 930,480 L930,480 L930,480 C930,468.954305 938.954305,460 950,460 Z"></path>
            </g>
            <g id="Combined-Shape" transform="translate(800.000000, 125.000000)">
                <mask id="mask-4" fill="white">
                    <use xlink:href="#path-3"></use>
                </mask>
                <use id="Mask" fill="#4392F1" xlink:href="#path-3"></use>
                <path d="M60,138.75 L60,135 L60,131.25 L60,131.25 C60,129.178932 61.6789322,127.5 63.75,127.5 L105,127.5 L105,127.5 C107.071068,127.5 108.75,125.821068 108.75,123.75 L108.75,123.75 L108.75,123.75 C108.75,121.678932 107.071068,120 105,120 L37.5,120 L37.5,120 C35.4289322,120 33.75,118.321068 33.75,116.25 L33.75,116.25 L33.75,116.25 C33.75,114.178932 35.4289322,112.5 37.5,112.5 L93.75,112.5 L93.75,112.5 C95.8210678,112.5 97.5,110.821068 97.5,108.75 L97.5,108.75 L97.5,108.75 C97.5,106.678932 95.8210678,105 93.75,105 L67.5,105 L67.5,105 C65.4289322,105 63.75,103.321068 63.75,101.25 L63.75,101.25 L63.75,101.25 C63.75,99.1789322 65.4289322,97.5 67.5,97.5 L71.25,97.5 L71.25,97.5 C73.3210678,97.5 75,95.8210678 75,93.75 L75,93.75 L75,93.75 C75,91.6789322 73.3210678,90 71.25,90 L37.5,90 L37.5,90 C35.4289322,90 33.75,88.3210678 33.75,86.25 L33.75,86.25 L33.75,86.25 C33.75,84.1789322 35.4289322,82.5 37.5,82.5 L97.5,82.5 L97.5,82.5 C99.5710678,82.5 101.25,80.8210678 101.25,78.75 L101.25,78.75 L101.25,78.75 C101.25,76.6789322 99.5710678,75 97.5,75 L82.5,75 L82.5,75 C80.4289322,75 78.75,73.3210678 78.75,71.25 L78.75,71.25 L78.75,71.25 C78.75,69.1789322 77.0710678,67.5 75,67.5 L60,67.5 L60,67.5 C57.9289322,67.5 56.25,65.8210678 56.25,63.75 L56.25,63.75 L56.25,63.75 C56.25,61.6789322 54.5710678,60 52.5,60 L33.75,60 L33.75,60 C31.6789322,60 30,58.3210678 30,56.25 L30,56.25 L30,56.25 C30,54.1789322 31.6789322,52.5 33.75,52.5 L41.25,52.5 L41.25,52.5 C43.3210678,52.5 45,50.8210678 45,48.75 L45,48.75 L45,48.75 C45,46.6789322 46.6789322,45 48.75,45 L78.75,45 L78.75,45 C80.8210678,45 82.5,43.3210678 82.5,41.25 L82.5,41.25 L82.5,41.25 C82.5,39.1789322 84.1789322,37.5 86.25,37.5 L93.75,37.5 L93.75,37.5 C95.8210678,37.5 97.5,35.8210678 97.5,33.75 L97.5,33.75 L97.5,33.75 C97.5,31.6789322 95.8210678,30 93.75,30 L48.75,30 L48.75,30 C46.6789322,30 45,28.3210678 45,26.25 L45,26.25 L45,26.25 C45,24.1789322 46.6789322,22.5 48.75,22.5 L78.75,22.5 L78.75,22.5 C80.8210678,22.5 82.5,20.8210678 82.5,18.75 L82.5,18.75 L82.5,18.75 C82.5,16.6789322 80.8210678,15 78.75,15 L48.75,15 L48.75,15 C46.6789322,15 45,13.3210678 45,11.25 L45,11.25 L45,11.25 C45,9.17893219 46.6789322,7.5 48.75,7.5 L67.5,7.5 L67.5,7.5 C69.5710678,7.5 71.25,5.82106781 71.25,3.75 L71.25,3.75 L71.25,3.75 C71.25,1.67893219 69.5710678,2.98176163e-14 67.5,3.01980663e-14 L-1.875,2.22445421e-15 L-1.875,0 C-42.2608223,7.41875501e-15 -75,32.7391777 -75,73.125 L-75,75 L-75,75 C-75,116.421356 -41.4213562,150 -2.84217094e-14,150 L78.75,150 L78.75,150 C80.8210678,150 82.5,148.321068 82.5,146.25 L82.5,146.25 L82.5,146.25 C82.5,144.178932 80.8210678,142.5 78.75,142.5 L63.75,142.5 L63.75,142.5 C61.6789322,142.5 60,140.821068 60,138.75 Z" fill="#E3EBFF" mask="url(#mask-4)"></path>
            </g>
        </g>
    </g>
</svg>