<?xml version="1.0" encoding="UTF-8"?>
<svg width="1000px" height="1000px" viewBox="0 0 1000 1000" version="1.1" xmlns="http://www.w3.org/2000/svg" xmlns:xlink="http://www.w3.org/1999/xlink">
    <!-- Generator: Sketch 46.1 (44463) - http://www.bohemiancoding.com/sketch -->
    <title>L'écurie</title>
    <desc>Created with Sketch.</desc>
    <defs>
        <path d="M200,0 C310.45695,-2.02906125e-14 400,89.54305 400,200 C400,310.45695 310.45695,400 200,400 C89.54305,400 1.3527075e-14,310.45695 0,200 C-1.3527075e-14,89.54305 89.54305,2.02906125e-14 200,0 Z" id="path-1"></path>
    </defs>
    <g id="Planètes" stroke="none" stroke-width="1" fill="none" fill-rule="evenodd">
        <g id="L'écurie">
            <g id="Combined-Shape" transform="translate(300.000000, 300.000000)">
                <mask id="mask-2" fill="white">
                    <use xlink:href="#path-1"></use>
                </mask>
                <use id="Mask" fill="#E3EBFF" xlink:href="#path-1"></use>
                <path d="M190,370 C190,375.522847 185.522847,380 180,380 C174.477153,380 170,384.477153 170,390 C170,395.522847 165.522847,400 160,400 L-140,400 C-195.228475,400 -240,355.228475 -240,300 L-240,100 C-240,44.771525 -195.228475,1.01453063e-14 -140,0 L170,1.42108547e-14 C175.522847,1.31963241e-14 180,4.4771525 180,10 C180,15.5228475 175.522847,20 170,20 L150,20 C144.477153,20 140,24.4771525 140,30 C140,35.5228475 144.477153,40 150,40 L220,40 C225.522847,40 230,44.4771525 230,50 C230,55.5228475 225.522847,60 220,60 L170,60 C164.477153,60 160,64.4771525 160,70 C160,75.5228475 164.477153,80 170,80 L180,80 C185.522847,80 190,84.4771525 190,90 C190,95.5228475 185.522847,100 180,100 L80,100 C74.4771525,100 70,104.477153 70,110 C70,115.522847 74.4771525,120 80,120 L120,120 C131.045695,120 140,128.954305 140,140 C140,151.045695 148.954305,160 160,160 L180,160 C185.522847,160 190,164.477153 190,170 C190,175.522847 185.522847,180 180,180 L100,180 C94.4771525,180 90,184.477153 90,190 C90,195.522847 94.4771525,200 100,200 L150,200 C155.522847,200 160,204.477153 160,210 C160,215.522847 155.522847,220 150,220 L30,220 C24.4771525,220 20,224.477153 20,230 C20,235.522847 24.4771525,240 30,240 L90,240 C95.5228475,240 100,244.477153 100,250 C100,255.522847 95.5228475,260 90,260 L2.84217094e-14,260 C-5.5228475,260 -10,264.477153 -10,270 C-10,275.522847 -5.5228475,280 2.84217094e-14,280 L160,280 C165.522847,280 170,284.477153 170,290 C170,295.522847 165.522847,300 160,300 L110,300 C104.477153,300 100,304.477153 100,310 C100,315.522847 104.477153,320 110,320 L230,320 C235.522847,320 240,324.477153 240,330 C240,335.522847 235.522847,340 230,340 L140,340 C134.477153,340 130,344.477153 130,350 C130,355.522847 134.477153,360 140,360 L180,360 C185.522847,360 190,364.477153 190,370 L190,370 Z" fill="#FFAAEA" mask="url(#mask-2)"></path>
            </g>
            <g id="Combined-Shape" transform="translate(50.000000, 400.000000)" fill="#34F6F2">
                <path d="M276.756439,-2.40826239e-14 L120,0 C108.954305,-5.68434189e-14 100,8.954305 100,20 C100,31.045695 108.954305,40 120,40 L145,40 C153.284271,40 160,46.7157288 160,55 C160,63.2842712 153.284271,70 145,70 L75,70 C66.7157288,70 60,76.7157288 60,85 C60,93.2842712 66.7157288,100 75,100 L155,100 C163.284271,100 170,106.715729 170,115 C170,123.284271 163.284271,130 155,130 L80,130 C68.954305,130 60,138.954305 60,150 C60,161.045695 51.045695,170 40,170 L15,170 C6.71572875,170 0,176.715729 0,185 C0,193.284271 6.71572875,200 15,200 L740,200 C751.045695,200 760,191.045695 760,180 C760,168.954305 768.954305,160 780,160 L780,160 L845,160 C853.284271,160 860,153.284271 860,145 C860,136.715729 853.284271,130 845,130 L775,130 C766.715729,130 760,123.284271 760,115 C760,106.715729 766.715729,100 775,100 L785,100 C793.284271,100 800,93.2842712 800,85 C800,76.7157288 793.284271,70 785,70 L755,70 C746.715729,70 740,63.2842712 740,55 C740,46.7157288 746.715729,40 755,40 L860,40 C871.045695,40 880,31.045695 880,20 C880,8.954305 871.045695,-5.68434189e-14 860,-1.13686838e-13 L623.243561,-7.73137454e-14 C640.260559,29.4172936 650,63.5712627 650,100 C650,138.659932 560.45695,170 450,170 C339.54305,170 250,138.659932 250,100 C250,63.5712627 259.739441,29.4172936 276.756471,-5.56833663e-05 Z"></path>
            </g>
        </g>
    </g>
</svg>