<?xml version="1.0" encoding="UTF-8"?>
<svg width="1000px" height="1000px" viewBox="0 0 1000 1000" version="1.1" xmlns="http://www.w3.org/2000/svg" xmlns:xlink="http://www.w3.org/1999/xlink">
    <!-- Generator: Sketch 46.1 (44463) - http://www.bohemiancoding.com/sketch -->
    <title>Galerie</title>
    <desc>Created with Sketch.</desc>
    <defs>
        <path d="M200,0 C310.45695,-2.02906125e-14 400,89.54305 400,200 C400,310.45695 310.45695,400 200,400 C89.54305,400 1.3527075e-14,310.45695 0,200 C-1.3527075e-14,89.54305 89.54305,2.02906125e-14 200,0 Z" id="path-1"></path>
    </defs>
    <g id="Planètes" stroke="none" stroke-width="1" fill="none" fill-rule="evenodd">
        <g id="Galerie">
            <g id="Combined-Shape" transform="translate(300.000000, 300.000000)">
                <mask id="mask-2" fill="white">
                    <use xlink:href="#path-1"></use>
                </mask>
                <use id="Mask" fill="#8377D1" xlink:href="#path-1"></use>
                <path d="M120,355 C120,346.715729 126.715729,340 135,340 L240,340 C245.522847,340 250,335.522847 250,330 C250,324.477153 245.522847,320 240,320 L95,320 C86.7157288,320 80,313.284271 80,305 C80,296.715729 86.7157288,290 95,290 L115,290 C123.284271,290 130,283.284271 130,275 C130,266.715729 136.715729,260 145,260 L300,260 C305.522847,260 310,255.522847 310,250 C310,244.477153 305.522847,240 300,240 L90,240 C84.4771525,240 80,235.522847 80,230 C80,224.477153 84.4771525,220 90,220 L220,220 C225.522847,220 230,215.522847 230,210 C230,204.477153 225.522847,200 220,200 L180,200 C174.477153,200 170,195.522847 170,190 C170,184.477153 174.477153,180 180,180 L290,180 C295.522847,180 300,175.522847 300,170 C300,164.477153 295.522847,160 290,160 L85,160 C76.7157288,160 70,153.284271 70,145 C70,136.675599 76.6746723,129.888755 84.9979171,129.750035 L116.001944,129.233301 C123.770306,129.103828 130,122.769441 130,115 C130,107.242979 136.242594,100.930638 143.999136,100.844454 L210.000617,100.111104 C215.541004,100.049544 220,95.5407291 220,90 C220,84.4771525 215.522847,80 210,80 L140,80 C134.477153,80 130,75.5228475 130,70 C130,64.4771525 134.477153,60 140,60 C145.522847,60 150,55.5228475 150,50 C150,44.4771525 145.522847,40 140,40 L120,40 C114.477153,40 110,35.5228475 110,30 L110,25 C110,22.2385763 112.238576,20 115,20 C117.761424,20 120,17.7614237 120,15 L120,10 C120,4.4771525 115.522847,5.93816019e-14 110,6.03961325e-14 L-140,0 C-195.228475,1.01453063e-14 -240,44.771525 -240,100 L-240,300 C-240,355.228475 -195.228475,400 -140,400 L165,400 C173.284271,400 180,393.284271 180,385 C180,376.715729 173.284271,370 165,370 L135,370 C126.715729,370 120,363.284271 120,355 Z" fill="#93BEDF" mask="url(#mask-2)"></path>
            </g>
            <path d="M396.926097,560 L290,560 C278.954305,560 270,568.954305 270,580 C270,591.045695 278.954305,600 290,600 L760,600 C771.045695,600 780,591.045695 780,580 C780,568.954305 771.045695,560 760,560 L740,560 C728.954305,560 720,551.045695 720,540 C720,528.954305 711.045695,520 700,520 L691.717752,520 C667.130632,548.914889 590.60059,570 500,570 C462.295197,570 427.02732,566.348198 396.926097,560 Z M302.025396,510 L185,510 C171.192881,510 160,498.807119 160,485 C160,471.192881 171.192881,460 185,460 L304.000725,460 C301.37721,472.924398 300,486.301366 300,500 C300,503.395213 300.690627,506.73397 302.025396,510 Z M312.633499,429.889456 C299.936271,428.697254 290,418.008997 290,405 C290,391.192881 301.192881,380 315,380 L339.985353,380 C328.633832,395.112608 319.373364,411.88561 312.6335,429.889453 Z M660.014647,380 L830,380 C841.045695,380 850,388.954305 850,400 C850,411.045695 841.045695,420 830,420 L815,420 C806.715729,420 800,426.715729 800,435 C800,443.284271 806.715729,450 815,450 L830,450 C841.045695,450 850,458.954305 850,470 C850,481.045695 841.045695,490 830,490 L699.75435,490 C697.727166,448.83192 683.252284,410.936938 660.014647,380 Z" id="Combined-Shape" fill="#FF0000" opacity="0.5"></path>
        </g>
    </g>
</svg>