<?xml version="1.0" encoding="UTF-8"?>
<svg width="1000px" height="1000px" viewBox="0 0 1000 1000" version="1.1" xmlns="http://www.w3.org/2000/svg" xmlns:xlink="http://www.w3.org/1999/xlink">
    <!-- Generator: Sketch 46.1 (44463) - http://www.bohemiancoding.com/sketch -->
    <title>Impact Hub</title>
    <desc>Created with Sketch.</desc>
    <defs>
        <path d="M200,0 C310.45695,-2.02906125e-14 400,89.54305 400,200 C400,310.45695 310.45695,400 200,400 C89.54305,400 1.3527075e-14,310.45695 0,200 C-1.3527075e-14,89.54305 89.54305,2.02906125e-14 200,0 Z" id="path-1"></path>
    </defs>
    <g id="Planètes" stroke="none" stroke-width="1" fill="none" fill-rule="evenodd">
        <g id="Impact-Hub">
            <g id="Combined-Shape" transform="translate(300.000000, 300.000000)">
                <mask id="mask-2" fill="white">
                    <use xlink:href="#path-1"></use>
                </mask>
                <use id="Mask" fill="#EE6055" xlink:href="#path-1"></use>
                <path d="M70,370 C70,375.522847 74.4771525,380 80,380 L210,380 C215.522847,380 220,384.477153 220,390 C220,395.522847 215.522847,400 210,400 L-140,400 C-195.228475,400 -240,355.228475 -240,300 L-240,100 C-240,44.771525 -195.228475,1.01453063e-14 -140,0 L170,7.63833441e-14 C175.522847,7.53688135e-14 180,4.4771525 180,10 C180,15.5228475 175.522847,20 170,20 L150,20 C144.477153,20 140,24.4771525 140,30 C140,35.5228475 144.477153,40 150,40 L250,40 C255.522847,40 260,44.4771525 260,50 C260,55.5228475 255.522847,60 250,60 L220,60 C214.477153,60 210,64.4771525 210,70 C210,75.5228475 214.477153,80 220,80 C225.522847,80 230,84.4771525 230,90 C230,95.5228475 225.522847,100 220,100 L130,100 C124.477153,100 120,104.477153 120,110 C120,115.522847 124.477153,120 130,120 L180,120 C185.522847,120 190,124.477153 190,130 C190,135.522847 185.522847,140 180,140 L130,140 C124.477153,140 120,144.477153 120,150 C120,155.522847 115.522847,160 110,160 L100,160 C94.4771525,160 90,164.477153 90,170 C90,175.522847 85.5228475,180 80,180 L60,180 C54.4771525,180 50,184.477153 50,190 C50,195.522847 54.4771525,200 60,200 L90,200 C95.5228475,200 100,204.477153 100,210 C100,215.522847 104.477153,220 110,220 C115.522847,220 120,224.477153 120,230 C120,235.522847 124.477153,240 130,240 L190,240 C195.522847,240 200,244.477153 200,250 C200,255.522847 195.522847,260 190,260 L-5.68434189e-14,260 C-5.5228475,260 -10,264.477153 -10,270 C-10,275.522847 -5.5228475,280 -5.68434189e-14,280 L220,280 C225.522847,280 230,284.477153 230,290 C230,295.522847 225.522847,300 220,300 L140,300 C134.477153,300 130,304.477153 130,310 C130,315.522847 134.477153,320 140,320 L160,320 C165.522847,320 170,324.477153 170,330 C170,335.522847 165.522847,340 160,340 L110,340 C104.477153,340 100,344.477153 100,350 C100,355.522847 95.5228475,360 90,360 L80,360 C74.4771525,360 70,364.477153 70,370 Z" fill="#E3EBFF" mask="url(#mask-2)"></path>
            </g>
            <path d="M304.000725,460 C301.37721,472.924398 300,486.301366 300,500 C300,538.659932 389.54305,570 500,570 C610.45695,570 700,538.659932 700,500 C700,454.975763 685.122207,413.426421 660.014647,380 L870,380 C881.045695,380 890,388.954305 890,400 C890,411.045695 881.045695,420 870,420 L765,420 C751.192881,420 740,431.192881 740,445 C740,458.807119 751.192881,470 765,470 L825,470 C833.284271,470 840,476.715729 840,485 C840,493.284271 833.284271,500 825,500 L805,500 C796.715729,500 790,506.715729 790,515 C790,523.284271 796.715729,530 805,530 L815,530 C823.284271,530 830,536.715729 830,545 C830,553.284271 823.284271,560 815,560 L725,560 L725,560 C716.715729,560 710,566.715729 710,575 C710,583.284271 703.284271,590 695,590 L225,590 C216.715729,590 210,583.284271 210,575 C210,566.715729 203.284271,560 195,560 L160,560 C148.954305,560 140,551.045695 140,540 C140,528.954305 148.954305,520 160,520 L255,520 C263.284271,520 270,513.284271 270,505 C270,496.715729 263.284271,490 255,490 L235,490 C226.715729,490 220,483.284271 220,475 C220,466.715729 226.715729,460 235,460 L304.000725,460 Z M316.641747,420 L310,420 C298.954305,420 290,411.045695 290,400 C290,388.954305 298.954305,380 310,380 L339.985353,380 C330.739566,392.309184 322.880996,405.719884 316.64175,419.999994 Z" id="Combined-Shape" fill="#35FF69"></path>
        </g>
    </g>
</svg>