<?xml version="1.0" encoding="UTF-8"?>
<svg width="1000px" height="1000px" viewBox="0 0 1000 1000" version="1.1" xmlns="http://www.w3.org/2000/svg" xmlns:xlink="http://www.w3.org/1999/xlink">
    <!-- Generator: Sketch 46.1 (44463) - http://www.bohemiancoding.com/sketch -->
    <title>Pachinko</title>
    <desc>Created with Sketch.</desc>
    <defs>
        <linearGradient x1="50%" y1="0%" x2="50%" y2="128.073124%" id="linearGradient-1">
            <stop stop-color="#F8FE90" offset="0%"></stop>
            <stop stop-color="#FFFFFF" offset="100%"></stop>
        </linearGradient>
    </defs>
    <g id="Planètes" stroke="none" stroke-width="1" fill="none" fill-rule="evenodd">
        <g id="Pachinko">
            <path d="M500,300 C610.45695,300 700,389.54305 700,500 C700,610.45695 610.45695,700 500,700 C389.54305,700 300,610.45695 300,500 C300,389.54305 389.54305,300 500,300 Z" id="Mask" fill="url(#linearGradient-1)"></path>
            <path d="M326.756439,400 L130,400 C118.954305,400 110,408.954305 110,420 C110,431.045695 118.954305,440 130,440 L200,440 C205.522847,440 210,444.477153 210,450 C210,455.522847 205.522847,460 200,460 L130,460 C118.954305,460 110,468.954305 110,480 C110,491.045695 118.954305,500 130,500 L210,500 C215.522847,500 220,504.477153 220,510 C220,515.522847 215.522847,520 210,520 L80,520 C68.954305,520 60,528.954305 60,540 C60,551.045695 68.954305,560 80,560 L150,560 C161.045695,560 170,568.954305 170,580 C170,591.045695 178.954305,600 190,600 L740,600 C751.045695,600 760,591.045695 760,580 C760,568.954305 768.954305,560 780,560 L930,560 C935.522847,560 940,555.522847 940,550 C940,544.477153 935.522847,540 930,540 L810,540 C798.954305,540 790,531.045695 790,520 C790,508.954305 798.954305,500 810,500 L825,500 C833.284271,500 840,493.284271 840,485 C840,476.715729 833.284271,470 825,470 L755,470 C746.715729,470 740,463.284271 740,455 C740,446.715729 746.715729,440 755,440 L940,440 C951.045695,440 960,431.045695 960,420 C960,408.954305 951.045695,400 940,400 L673.243561,400 C690.260559,429.417294 700,463.571263 700,500 C700,538.659932 610.45695,570 500,570 C389.54305,570 300,538.659932 300,500 C300,463.571263 309.739441,429.417294 326.756471,399.999944 L326.756439,400 Z" id="Combined-Shape" fill="#FF0000" opacity="0.5"></path>
        </g>
    </g>
</svg>