<?xml version="1.0" encoding="UTF-8"?>
<svg width="1000px" height="1000px" viewBox="0 0 1000 1000" version="1.1" xmlns="http://www.w3.org/2000/svg" xmlns:xlink="http://www.w3.org/1999/xlink">
    <!-- Generator: Sketch 46.1 (44463) - http://www.bohemiancoding.com/sketch -->
    <title>Petite Reine</title>
    <desc>Created with Sketch.</desc>
    <defs>
        <linearGradient x1="100%" y1="0%" x2="0%" y2="100%" id="linearGradient-1">
            <stop stop-color="#FF3CAC" offset="0%"></stop>
            <stop stop-color="#784BA0" offset="51.5306122%"></stop>
            <stop stop-color="#2B86C5" offset="100%"></stop>
        </linearGradient>
        <path d="M200,0 C310.45695,-2.02906125e-14 400,89.54305 400,200 C400,310.45695 310.45695,400 200,400 C89.54305,400 1.3527075e-14,310.45695 0,200 C-1.3527075e-14,89.54305 89.54305,2.02906125e-14 200,0 Z" id="path-2"></path>
    </defs>
    <g id="Planètes" stroke="none" stroke-width="1" fill="none" fill-rule="evenodd">
        <g id="Petite-Reine">
            <g id="Combined-Shape" transform="translate(300.000000, 300.000000)">
                <mask id="mask-3" fill="white">
                    <use xlink:href="#path-2"></use>
                </mask>
                <use id="Mask" fill="#FF9B42" xlink:href="#path-2"></use>
                <path d="M200,370 C200,375.522847 195.522847,380 190,380 L50,380 C44.4771525,380 40,384.477153 40,390 C40,395.522847 35.5228475,400 30,400 L-180,400 C-235.228475,400 -280,355.228475 -280,300 L-280,100 C-280,44.771525 -235.228475,1.01453063e-14 -180,0 L130,1.42108547e-14 C135.522847,1.31963241e-14 140,4.4771525 140,10 C140,15.5228475 135.522847,20 130,20 L90,20 C84.4771525,20 80,24.4771525 80,30 C80,35.5228475 84.4771525,40 90,40 L160,40 C165.522847,40 170,44.4771525 170,50 C170,55.5228475 165.522847,60 160,60 L90,60 C84.4771525,60 80,64.4771525 80,70 C80,75.5228475 84.4771525,80 90,80 L120,80 C125.522847,80 130,84.4771525 130,90 C130,95.5228475 134.477153,100 140,100 L230,100 C235.522847,100 240,104.477153 240,110 C240,115.522847 235.522847,120 230,120 L50,120 C44.4771525,120 40,124.477153 40,130 C40,135.522847 44.4771525,140 50,140 L230,140 C235.522847,140 240,144.477153 240,150 C240,155.522847 235.522847,160 230,160 L160,160 C154.477153,160 150,164.477153 150,170 C150,175.522847 145.522847,180 140,180 L110,180 C104.477153,180 100,184.477153 100,190 C100,195.522847 104.477153,200 110,200 L270,200 C275.522847,200 280,204.477153 280,210 C280,215.522847 275.522847,220 270,220 L230,220 C224.477153,220 220,224.477153 220,230 C220,235.522847 224.477153,240 230,240 L290,240 C295.522847,240 300,244.477153 300,250 C300,255.522847 295.522847,260 290,260 L-40,260 C-45.5228475,260 -50,264.477153 -50,270 C-50,275.522847 -45.5228475,280 -40,280 L130,280 C135.522847,280 140,284.477153 140,290 C140,295.522847 135.522847,300 130,300 L110,300 C104.477153,300 100,304.477153 100,310 C100,315.522847 104.477153,320 110,320 L280,320 C285.522847,320 290,324.477153 290,330 C290,335.522847 285.522847,340 280,340 L150,340 C144.477153,340 140,344.477153 140,350 C140,355.522847 144.477153,360 150,360 L190,360 C195.522847,360 200,364.477153 200,370 Z" fill="#E71D36" mask="url(#mask-3)"></path>
            </g>
        </g>
    </g>
</svg>