<?xml version="1.0" encoding="UTF-8"?>
<svg width="1200px" height="1200px" viewBox="0 0 1200 1200" version="1.1" xmlns="http://www.w3.org/2000/svg" xmlns:xlink="http://www.w3.org/1999/xlink">
    <!-- Generator: Sketch 46 (44423) - http://www.bohemiancoding.com/sketch -->
    <title>(Point solaire)</title>
    <desc>Created with Sketch.</desc>
    <defs>
        <path d="M75,0 C116.421356,-7.6089797e-15 150,33.5786438 150,75 C150,116.421356 116.421356,150 75,150 C33.5786438,150 5.07265313e-15,116.421356 0,75 C-5.07265313e-15,33.5786438 33.5786438,7.6089797e-15 75,0 Z" id="path-1"></path>
        <path d="M75,0 C116.421356,-7.6089797e-15 150,33.5786438 150,75 C150,116.421356 116.421356,150 75,150 C33.5786438,150 5.07265313e-15,116.421356 0,75 C-5.07265313e-15,33.5786438 33.5786438,7.6089797e-15 75,0 Z" id="path-3"></path>
    </defs>
    <g id="Planètes" stroke="none" stroke-width="1" fill="none" fill-rule="evenodd">
        <g id="(Point-solaire)">
            <path d="M600,400 C710.45695,400 800,489.54305 800,600 C800,710.45695 710.45695,800 600,800 C489.54305,800 400,710.45695 400,600 C400,489.54305 489.54305,400 600,400 Z" id="Mask" fill="#FA7921"></path>
            <g id="Combined-Shape" transform="translate(600.000000, 85.000000)">
                <mask id="mask-2" fill="white">
                    <use xlink:href="#path-1"></use>
                </mask>
                <use id="Mask" fill="#FA7921" xlink:href="#path-1"></use>
                <path d="M60,138.75 C60,140.821068 61.6789322,142.5 63.75,142.5 L78.75,142.5 C80.8210678,142.5 82.5,144.178932 82.5,146.25 C82.5,148.321068 80.8210678,150 78.75,150 L-2.84217094e-14,150 C-41.4213562,150 -75,116.421356 -75,75 L-75,73.125 C-75,32.7391777 -42.2608223,7.41875501e-15 -1.875,0 L67.5,3.01980663e-14 C69.5710678,2.98176163e-14 71.25,1.67893219 71.25,3.75 C71.25,5.82106781 69.5710678,7.5 67.5,7.5 L48.75,7.5 C46.6789322,7.5 45,9.17893219 45,11.25 C45,13.3210678 46.6789322,15 48.75,15 L78.75,15 C80.8210678,15 82.5,16.6789322 82.5,18.75 C82.5,20.8210678 80.8210678,22.5 78.75,22.5 L48.75,22.5 C46.6789322,22.5 45,24.1789322 45,26.25 C45,28.3210678 46.6789322,30 48.75,30 L93.75,30 C95.8210678,30 97.5,31.6789322 97.5,33.75 C97.5,35.8210678 95.8210678,37.5 93.75,37.5 L86.25,37.5 C84.1789322,37.5 82.5,39.1789322 82.5,41.25 C82.5,43.3210678 80.8210678,45 78.75,45 L48.75,45 C46.6789322,45 45,46.6789322 45,48.75 C45,50.8210678 43.3210678,52.5 41.25,52.5 L33.75,52.5 C31.6789322,52.5 30,54.1789322 30,56.25 C30,58.3210678 31.6789322,60 33.75,60 L52.5,60 C54.5710678,60 56.25,61.6789322 56.25,63.75 C56.25,65.8210678 57.9289322,67.5 60,67.5 L75,67.5 C77.0710678,67.5 78.75,69.1789322 78.75,71.25 C78.75,73.3210678 80.4289322,75 82.5,75 L97.5,75 C99.5710678,75 101.25,76.6789322 101.25,78.75 C101.25,80.8210678 99.5710678,82.5 97.5,82.5 L37.5,82.5 C35.4289322,82.5 33.75,84.1789322 33.75,86.25 C33.75,88.3210678 35.4289322,90 37.5,90 L71.25,90 C73.3210678,90 75,91.6789322 75,93.75 C75,95.8210678 73.3210678,97.5 71.25,97.5 L67.5,97.5 C65.4289322,97.5 63.75,99.1789322 63.75,101.25 C63.75,103.321068 65.4289322,105 67.5,105 L93.75,105 C95.8210678,105 97.5,106.678932 97.5,108.75 C97.5,110.821068 95.8210678,112.5 93.75,112.5 L37.5,112.5 C35.4289322,112.5 33.75,114.178932 33.75,116.25 C33.75,118.321068 35.4289322,120 37.5,120 L105,120 C107.071068,120 108.75,121.678932 108.75,123.75 C108.75,125.821068 107.071068,127.5 105,127.5 L63.75,127.5 C61.6789322,127.5 60,129.178932 60,131.25 L60,138.75 Z" fill-opacity="0.75" fill="#FFFFFF" mask="url(#mask-2)"></path>
            </g>
            <g id="Combined-Shape" transform="translate(190.000000, 800.000000)">
                <mask id="mask-4" fill="white">
                    <use xlink:href="#path-3"></use>
                </mask>
                <use id="Mask" fill="#FA7921" xlink:href="#path-3"></use>
                <path d="M60,138.75 L60,131.25 C60,129.178932 61.6789322,127.5 63.75,127.5 L105,127.5 C107.071068,127.5 108.75,125.821068 108.75,123.75 C108.75,121.678932 107.071068,120 105,120 L37.5,120 C35.4289322,120 33.75,118.321068 33.75,116.25 C33.75,114.178932 35.4289322,112.5 37.5,112.5 L93.75,112.5 C95.8210678,112.5 97.5,110.821068 97.5,108.75 C97.5,106.678932 95.8210678,105 93.75,105 L67.5,105 C65.4289322,105 63.75,103.321068 63.75,101.25 C63.75,99.1789322 65.4289322,97.5 67.5,97.5 L71.25,97.5 C73.3210678,97.5 75,95.8210678 75,93.75 C75,91.6789322 73.3210678,90 71.25,90 L37.5,90 C35.4289322,90 33.75,88.3210678 33.75,86.25 C33.75,84.1789322 35.4289322,82.5 37.5,82.5 L97.5,82.5 C99.5710678,82.5 101.25,80.8210678 101.25,78.75 C101.25,76.6789322 99.5710678,75 97.5,75 L82.5,75 C80.4289322,75 78.75,73.3210678 78.75,71.25 C78.75,69.1789322 77.0710678,67.5 75,67.5 L60,67.5 C57.9289322,67.5 56.25,65.8210678 56.25,63.75 C56.25,61.6789322 54.5710678,60 52.5,60 L33.75,60 C31.6789322,60 30,58.3210678 30,56.25 C30,54.1789322 31.6789322,52.5 33.75,52.5 L41.25,52.5 C43.3210678,52.5 45,50.8210678 45,48.75 C45,46.6789322 46.6789322,45 48.75,45 L78.75,45 C80.8210678,45 82.5,43.3210678 82.5,41.25 C82.5,39.1789322 84.1789322,37.5 86.25,37.5 L93.75,37.5 C95.8210678,37.5 97.5,35.8210678 97.5,33.75 C97.5,31.6789322 95.8210678,30 93.75,30 L48.75,30 C46.6789322,30 45,28.3210678 45,26.25 C45,24.1789322 46.6789322,22.5 48.75,22.5 L78.75,22.5 C80.8210678,22.5 82.5,20.8210678 82.5,18.75 C82.5,16.6789322 80.8210678,15 78.75,15 L48.75,15 C46.6789322,15 45,13.3210678 45,11.25 C45,9.17893219 46.6789322,7.5 48.75,7.5 L67.5,7.5 C69.5710678,7.5 71.25,5.82106781 71.25,3.75 C71.25,1.67893219 69.5710678,2.75931621e-14 67.5,2.79736121e-14 L-1.875,0 C-42.2608223,5.1943008e-15 -75,32.7391777 -75,73.125 L-75,75 C-75,116.421356 -41.4213562,150 -2.84217094e-14,150 L78.75,150 C80.8210678,150 82.5,148.321068 82.5,146.25 C82.5,144.178932 80.8210678,142.5 78.75,142.5 L63.75,142.5 C61.6789322,142.5 60,140.821068 60,138.75 Z" fill="#E3EBFF" mask="url(#mask-4)"></path>
            </g>
        </g>
    </g>
</svg>