<?xml version="1.0" encoding="UTF-8"?>
<svg width="1000px" height="1000px" viewBox="0 0 1000 1000" version="1.1" xmlns="http://www.w3.org/2000/svg" xmlns:xlink="http://www.w3.org/1999/xlink">
    <!-- Generator: Sketch 46.1 (44463) - http://www.bohemiancoding.com/sketch -->
    <title>Saltimbanque</title>
    <desc>Created with Sketch.</desc>
    <defs>
        <path d="M200,0 C310.45695,-2.02906125e-14 400,89.54305 400,200 C400,310.45695 310.45695,400 200,400 C89.54305,400 1.3527075e-14,310.45695 0,200 C-1.3527075e-14,89.54305 89.54305,2.02906125e-14 200,0 Z" id="path-1"></path>
    </defs>
    <g id="Planètes" stroke="none" stroke-width="1" fill="none" fill-rule="evenodd">
        <g id="Saltimbanque">
            <g id="Combined-Shape" transform="translate(300.000000, 300.000000)">
                <mask id="mask-2" fill="white">
                    <use xlink:href="#path-1"></use>
                </mask>
                <use id="Mask" fill="#24FE41" xlink:href="#path-1"></use>
                <path d="M230,370 C230,375.522847 225.522847,380 220,380 L200,380 C194.477153,380 190,384.477153 190,390 C190,395.522847 185.522847,400 180,400 L-140,400 C-195.228475,400 -240,355.228475 -240,300 L-240,100 C-240,44.771525 -195.228475,1.36266642e-13 -140,1.26121336e-13 L140,0 C145.522847,6.27540309e-14 150,4.4771525 150,10 C150,15.5228475 154.477153,20 160,20 L320,20 C325.522847,20 330,24.4771525 330,30 C330,35.5228475 325.522847,40 320,40 L240,40 C234.477153,40 230,44.4771525 230,50 C230,55.5228475 225.522847,60 220,60 L170,60 C164.477153,60 160,64.4771525 160,70 C160,75.5228475 164.477153,80 170,80 L180,80 C185.522847,80 190,84.4771525 190,90 C190,95.5228475 194.477153,100 200,100 L250,100 C255.522847,100 260,104.477153 260,110 C260,115.522847 264.477153,120 270,120 L310,120 C315.522847,120 320,124.477153 320,130 C320,135.522847 315.522847,140 310,140 L270,140 C264.477153,140 260,144.477153 260,150 C260,155.522847 255.522847,160 250,160 L140,160 C134.477153,160 130,164.477153 130,170 C130,175.522847 134.477153,180 140,180 L300,180 C305.522847,180 310,184.477153 310,190 C310,195.522847 305.522847,200 300,200 L150,200 C144.477153,200 140,204.477153 140,210 C140,215.522847 144.477153,220 150,220 L210,220 C215.522847,220 220,224.477153 220,230 C220,235.522847 215.522847,240 210,240 L120,240 C114.477153,240 110,244.477153 110,250 C110,255.522847 105.522847,260 100,260 L90,260 C84.4771525,260 80,264.477153 80,270 C80,275.522847 84.4771525,280 90,280 L100,280 C105.522847,280 110,284.477153 110,290 C110,295.522847 114.477153,300 120,300 L190,300 C195.522847,300 200,304.477153 200,310 C200,315.522847 204.477153,320 210,320 C215.522847,320 220,324.477153 220,330 C220,335.522847 215.522847,340 210,340 L150,340 C144.477153,340 140,344.477153 140,350 C140,355.522847 144.477153,360 150,360 L220,360 C225.522847,360 230,364.477153 230,370 Z" fill="#FDFC47" mask="url(#mask-2)"></path>
            </g>
        </g>
    </g>
</svg>